<?xml version="1.0" encoding="utf-8"?>

<!DOCTYPE svg PUBLIC "-//W3C//DTD SVG 1.1//EN" "http://www.w3.org/Graphics/SVG/1.1/DTD/svg11.dtd">
<svg version="1.1" id="Layer_1" xmlns="http://www.w3.org/2000/svg" xmlns:xlink="http://www.w3.org/1999/xlink" x="0px" y="0px"
	 viewBox="0 0 1065 575" enable-background="new 0 0 1065 575" xml:space="preserve">
<g>
	<path fill="#FAE9D9" d="M198.93,29.59c0.06,21.37,0.23,42.75-0.09,64.12l-1.06-0.72c-0.3-21.12,0.04-42.26-0.16-63.39L198.93,29.59
		z"/>
	<path fill="#FAE9D9" d="M196.47,27.91c-0.14,22.37-0.12,44.74-0.01,67.11c-1.5,0.02-2.99,0.04-4.49,0.06
		c0.06-22.41,0.05-44.82,0-67.23C193.47,27.87,194.97,27.89,196.47,27.91z"/>
	<path fill="#FAE9D9" d="M190.65,27.97c-0.06,22.32-0.11,44.64,0.02,66.96c-1.51,0.06-3.02,0.12-4.53,0.17
		c0.03-22.41,0.03-44.82-0.01-67.23C187.63,27.92,189.14,27.94,190.65,27.97z"/>
	<path fill="#FAE9D9" d="M180.43,28.03c1.48-0.07,2.96-0.14,4.45-0.21c-0.17,20.41,0.28,40.87-0.22,61.24
		c1.22,1.72,0.09,4.02,0.29,5.97l-0.19,0.1c-1.45-0.06-2.89-0.12-4.33-0.19C180.55,72.64,180.54,50.33,180.43,28.03z"/>
	<path fill="#FAE9D9" d="M174.74,95.1c0.04-22.39,0.06-44.78-0.01-67.17l1.27-0.08h3.22c-0.11,0.63-0.32,1.9-0.43,2.54
		c0.52,21.55,0.04,43.14,0.24,64.71l-1.06-0.06c-0.46,0.01-1.38,0.04-1.84,0.05L174.74,95.1z"/>
	<path fill="#FAE9D9" d="M169.1,94.69c-0.14-22.27,0-44.54-0.06-66.8c1.43,0,2.85,0.01,4.28,0.01c-0.03,22.11,0.09,44.23-0.06,66.33
		l-1.31,1.65c-0.01-0.09-0.02-0.18-0.03-0.27c-0.05,0.01-0.1,0.03-0.15,0.03c-0.15,0-0.27-0.06-0.35-0.14
		c0,0.02,0.01,0.04,0.01,0.06L169.1,94.69z"/>
	<path fill="#FAE9D9" d="M167.68,28.04c-0.26,22.34,0.09,44.69-0.17,67.03c-0.46-0.11-1.38-0.34-1.84-0.46l-0.31,0.16
		c-0.53,0.03-1.59,0.09-2.12,0.12c-0.09-22.33,0-44.67-0.06-67.01C164.68,27.96,166.18,28.01,167.68,28.04z"/>
	<path fill="#FAE9D9" d="M161.91,27.87c-0.06,22.4-0.06,44.81-0.01,67.21c-1.53-0.05-3.06-0.1-4.59-0.15
		c0.13-22.31,0.05-44.62,0.04-66.93C158.87,27.94,160.39,27.9,161.91,27.87z"/>
	<path fill="#FAE9D9" d="M155.86,27.6c0.59,22.47,0,44.98,0.29,67.46c-1.5,0.01-3,0.01-4.49,0.02c0.1-22.04-0.04-44.08,0.07-66.11
		l1.11-1.25l0.54,0.5l0.4,0.17C154.3,28.19,155.34,27.8,155.86,27.6z"/>
	<path fill="#FAE9D9" d="M145.92,95.06c0.03-22.4,0.04-44.8-0.01-67.2c1.44,0.01,2.88,0.03,4.33,0.04
		c-0.06,22.39-0.03,44.78-0.03,67.17C148.77,95.07,147.34,95.06,145.92,95.06z"/>
	<path fill="#FAE9D9" d="M144.85,93.08c0.14,1-0.21,1.76-1.05,2.28l-1.73-0.43c-0.48,0.01-1.45,0.01-1.94,0.01
		c0.13-22.27-0.06-44.55,0.09-66.82c0.41-0.09,1.24-0.28,1.66-0.37l1.94-0.1c0.84,0.53,1.19,1.3,1.03,2.32
		C144.83,51.01,144.82,72.04,144.85,93.08z"/>
	<path fill="#FAE9D9" d="M134.24,95.04c0.07-22.36,0.07-44.73,0.01-67.09c1.53-0.03,3.05-0.05,4.58-0.07
		c0.03,22.37-0.01,44.75,0.01,67.13C137.3,95.02,135.77,95.03,134.24,95.04z"/>
	<path fill="#FAE9D9" d="M132.97,27.84c0.05,22.41,0,44.83,0.02,67.25c-1.47-0.02-2.94-0.03-4.4-0.05
		c0.02-22.38,0.01-44.76-0.01-67.14C130.04,27.88,131.5,27.86,132.97,27.84z"/>
	<path fill="#FAE9D9" d="M124.18,95.4l-1.25-0.32c0.06-22.39,0.1-44.78-0.02-67.16c1.41-0.02,2.81-0.05,4.22-0.07
		c0.03,22.43-0.05,44.86,0.02,67.29c-0.5-0.08-1.5-0.23-1.99-0.31L124.18,95.4z"/>
	<path fill="#FAE9D9" d="M120.31,27.34c0.95,0.65,1.34,1.53,1.2,2.63c-0.06,21.53,0.01,43.05-0.07,64.57
		c-0.29,0.18-0.87,0.55-1.16,0.73c-0.8-0.07-2.4-0.2-3.21-0.26c0.1-21.81-0.24-43.64,0.17-65.44c-0.53-1.57,0.09-2.09,1.86-1.57
		L120.31,27.34z"/>
	<path fill="#FAE9D9" d="M111.27,27.94c1.51-0.03,3.03-0.06,4.55-0.09c-0.04,22.4-0.05,44.8-0.01,67.2
		c-1.52-0.01-3.04-0.03-4.56-0.04C111.34,72.65,111.27,50.3,111.27,27.94z"/>
	<path fill="#FAE9D9" d="M109.99,95.05c-1.47,0.01-2.93,0.02-4.39,0.03c-0.1-22.41-0.03-44.83-0.01-67.25
		c1.46,0.03,2.93,0.05,4.39,0.07C110.01,50.29,110,72.67,109.99,95.05z"/>
	<path fill="#FAE9D9" d="M102.02,94.81l-1.1,0.6l-1.11-0.44c-0.01-22.37,0.04-44.74-0.02-67.11l1.14,0.02h2.03l1.16-0.01
		c-0.04,22.43-0.06,44.85,0.01,67.28C103.6,95.06,102.54,94.9,102.02,94.81z"/>
	<path fill="#FAE9D9" d="M94,27.85c1.47,0.01,2.94,0.02,4.41,0.02c0.02,22.41,0.05,44.81,0,67.21c-1.47-0.01-2.94-0.02-4.41-0.03
		V27.85z"/>
	<path fill="#FAE9D9" d="M88.31,94.63c0-22.09-0.1-44.2,0.05-66.3c0.35-0.18,1.05-0.54,1.39-0.72l1.56,0.3
		c0.35,0.01,1.06,0.03,1.42,0.04c0.01,22.26,0.13,44.52-0.04,66.78c-0.34,0.13-1.02,0.4-1.36,0.54l-1.58-0.02
		C89.39,95.1,88.67,94.79,88.31,94.63z"/>
	<path fill="#FAE9D9" d="M86.97,27.88c0.01,22.39,0.02,44.78,0.01,67.17c-1.48,0.01-2.96,0.02-4.43,0.03
		c0.06-22.39-0.01-44.78,0.02-67.18C84.03,27.89,85.5,27.88,86.97,27.88z"/>
	<path fill="#FAE9D9" d="M81.19,27.89c-0.13,22.48,0.01,44.97-0.06,67.46l-1.41-0.46c-0.44,0.05-1.32,0.14-1.76,0.19l-1.26,0.03
		c0.11-22.4,0.12-44.81,0-67.21C78.19,27.9,79.69,27.89,81.19,27.89z"/>
	<path fill="#FAE9D9" d="M75.49,28.78c-0.1,21.84-0.13,43.68,0.02,65.52c-2.19-0.9-1.46-3.45-1.61-5.31
		c0.16-19.82-0.24-39.66,0.22-59.47L75.49,28.78z"/>
	<path fill="#12110D" d="M627,535.18c2.9,0.24,3.23-4.09,5.89-4.35c2.74-0.52,3.93,2.51,5.52,4.13
		c5.2401-0.07,10.42-0.95,15.65-1.31c1.18-1.61,1.83-3.77,3.58-4.88c2.74-1.23,4.65,1.71,6.52,3.21c5.17-0.86,10.27-2.13,15.36-3.4
		c0.84-1.78,1.32-3.85,2.77-5.26c2.69-1.58,4.97,1.22,7.1,2.49c4.76-1.78,9.64-3.27,14.31-5.29c1.5-1.82,0.86-5.1,3.29-6.14
		c2.73-1.39,5.02,2.76,7.73,1.27c4.29-1.97,8.45-4.22,12.6-6.49c0.36-1.88,0.45-3.85,1.2-5.62c2.06-2.43,5-0.25,7.42,0.21
		c4.57-2.51,8.83-5.66,12.93-8.86c0.3-1.84,0.05-3.73,0.53-5.52c1.66-2.86,5.09-1.12,7.59-0.72c3.94-3.42,7.87-6.85,11.64-10.45
		c-0.13-1.94-0.6-3.9-0.26-5.82c1.46-2.82,4.83-1.45,7.31-1.6c3.73-3.65,7.05-7.73,10.3-11.82c-0.32-2.13-1.6-4.44-0.49-6.49
		c1.49-2.08,4.37-1.04,6.51-1.6c3.3-4.08,5.91-8.68,8.82-13.05c-0.62-1.9-1.84-3.76-1.63-5.81c0.8-2.9,4.36-2.43,6.69-3.03
		c2.41-4.63,4.73-9.3,6.9-14.05c-0.8701-2.19-3.1801-4.38-1.92-6.85c1.33-1.76,3.81-1.81,5.73-2.56c1.98-4.9,3.6-9.93,5.1-15
		c-1.28-1.98-3.75-3.92-2.74-6.54c1.26-1.8,3.71-2.12,5.4-3.42c1.27-4.86,2.1801-9.82,3.02-14.76c-0.85-2.16-3.84-3.36-3.55-5.89
		c0.15-2.79,3.7-3.01,5-5.01c0.58-4.96,0.95-9.97,0.98-14.96c-1.07-1.54-2.77-2.5-3.94-3.95c-0.22-1.98-0.24-4.02,0.04-5.99
		c1.12-1.49,3.21-2.29,3.88-4.05c0.02-4.95-0.39-9.9-0.98-14.81c-1.5-1.91-5.04-2.26-5.02-5.14c0.0699-2.35,2.41-3.69,3.72-5.39
		c-1.01-5.03-1.85-10.1-3.14-15.07c-1.92-1.48-5.41-1.67-5.71-4.58c0.17-2.16,1.97-3.72,3.06-5.47
		c-1.56-4.84-2.9901-9.74-4.97-14.43c-1.83-1.6-5.56-1.05-6.22-3.98c-0.32-2.26,1.89-3.92,2.08-6.06c-2.03-4.68-4.2-9.35-6.84-13.72
		c-2.26-0.91-5.94-0.28-6.6-3.3c-0.03-2.04,1.03-3.86,1.65-5.75c-2.87-4.38-5.64-8.83-8.72-13.08c-1.91-0.22-4.02,0.23-5.76-0.64
		c-2.49-1.75-0.69-4.99-0.34-7.37c-1.62-2-3.21-4.02-4.88-5.95c1.26-0.11,2.53-0.22,3.81-0.33c0.12-12.28-0.09-24.56,0.04-36.85
		c82.34-0.23,164.68,0.04,247.02-0.14c1.66-0.32,2.84,0.74,3.89,1.87h0.8101c-0.0601,10.25-0.1101,20.5,0.1499,30.74
		c-0.5599,30.5-0.09,61.03-0.26,91.53c0.0601,79.68,0.01,159.36,0.05,239.04c-0.22,6.54-3.42,12.9-8.5699,16.95
		c-2.8501,2.36-6.3701,3.62-9.73,5.05c-324.04-0.08-648.08,0.07-972.12-0.09v-1.52c1.61,0,3.22-0.04,4.82-0.02
		c192.68-0.01,385.35-0.01,578.03-0.01c125.63,0,251.25,0,376.88,0.01c3.88-0.12,7.83,0.42,11.66-0.54
		c6.8-0.78,12.72-5.92,15.55-12.04c2.58-5.27,1.71-11.28,1.83-16.93l0.03-1.1c-93,0.07-186.01,0.01-279.01,0.03
		c-13.48,0.19-27-0.38-40.45,0.29c-2.81,1.54-5.71-1.11-8.71-0.37c-0.46,1.52-0.82,3.0699-1.4,4.55c-1.97,1.32-4.33,1.91-6.49,2.82
		l-0.03,0.09c-3.36,0.91-6.52,2.59-9.98,3.1c-1.77-0.96-3.4-2.17-5.07-3.27c-1.45,1.68-2.3,3.74-3.1,5.79
		c-5.53,1.69-11.23,2.7-16.86,3.93c-1.61-1.31-3.02-2.89-4.87-3.83c-2.01,0.75-2.41,3.5099-3.96,4.94
		c-5.59,1.36-11.41,1.12-17.09,1.81c-1.46-1.57-2.88-3.16-4.35-4.7c-1.8,1.37-3.2,3.15-4.58,4.92c-5.75-0.03-11.49-0.21-17.21-0.68
		c-1.25-1.77-2.52-3.52-3.88-5.18c-1.65,1.37-3.14,2.94-4.89,4.2c-5.65-0.45-11.27-1.45-16.81-2.64c-1.42-1.76-2.2-3.95-3.45-5.82
		l0.06-1.07c0.37,0.02,0.76,0.12,1.16,0.31c1.41,1.46,2.11,3.42,3.11,5.17c5.11,0.9301,10.24,1.84,15.4,2.51
		c1.88-1.61,3.57-4.68,6.51-3.67c1.62,1.25,2.45,3.2,3.84,4.69C617.58,535.1,622.29,535.09,627,535.18z"/>
	<path fill="#12110D" d="M196.46,95.02c-0.11-22.37-0.13-44.74,0.01-67.11c-1.5-0.02-3-0.04-4.5-0.06c0.05,22.41,0.06,44.82,0,67.23
		C193.47,95.06,194.96,95.04,196.46,95.02z M980.35,90.82c0.13-24.69-0.03-49.39,0.09-74.08c-1.49-0.06-2.97-0.11-4.44-0.14
		c0.16,24.74,0.06,49.48,0.03,74.23C977.46,90.82,978.9,90.82,980.35,90.82z M437.18,271.02c2.21,1.33,2.01-3.93-0.1-2.67
		C437.1,269.02,437.15,270.35,437.18,271.02z M349.28,54.93c35.64,0.1,71.29-0.01,106.94,0.07c-0.02-3.93-0.01-7.85-0.04-11.78
		c-35.64,0.12-71.27,0.03-106.91,0.05C349.27,47.15,349.29,51.04,349.28,54.93z M931.11,90.8c1.4,0.02,2.81,0.05,4.24,0.09
		c0.07-24.76-0.04-49.52,0.07-74.27c-1.47,0.01-2.92,0.02-4.36,0.04C931.19,41.37,931.09,66.08,931.11,90.8z M75.51,94.3
		c-0.15-21.84-0.12-43.68-0.02-65.52l-1.37,0.74c-0.46,19.81-0.06,39.65-0.22,59.47C74.05,90.85,73.32,93.4,75.51,94.3z
		 M256.01,57.46c-4.15-0.3-7.46,3.21-7.9,7.16c16.14-0.01,32.28-0.02,48.42,0.01c-0.4-3.8-3.51-7.31-7.52-7.16
		C278.01,57.39,267.01,57.43,256.01,57.46z M983.71,83.01c-0.07-20-0.02-39.99-0.01-59.98c0.17-1.95-0.71-3.71-1.57-5.38
		c-0.46,2.11-0.36,4.27-0.33,6.42c0.07,21.78-0.04,43.57,0.05,65.35C983.85,87.92,983.68,85.23,983.71,83.01z M156.15,95.06
		c-0.29-22.48,0.3-44.99-0.29-67.46c-0.52,0.2-1.56,0.59-2.08,0.79l-0.4-0.17l-0.54-0.5l-1.11,1.25
		c-0.11,22.03,0.03,44.07-0.07,66.11C153.15,95.07,154.65,95.07,156.15,95.06z M940.97,18.92c0.01-0.57,0.03-1.71,0.04-2.28
		c-1.38,0.01-2.76,0.01-4.12,0.01c0.02,24.73,0.04,49.45,0,74.18c1.34-0.02,2.7-0.03,4.06-0.04c-0.05-23.78,0.17-47.57-0.09-71.34
		L940.97,18.92z M190.67,94.93c-0.13-22.32-0.08-44.64-0.02-66.96c-1.51-0.03-3.02-0.05-4.52-0.1c0.04,22.41,0.04,44.82,0.01,67.23
		C187.65,95.05,189.16,94.99,190.67,94.93z M445.84,425.15c0.59-1.32,1.17-2.64,1.75-3.96c-0.95-0.98-1.88-1.96-2.81-2.95
		c-1.08-0.36-2.13-0.74-3.19-1.1c-5.43,9.92-10.32,20.13-14.25,30.74c4.76-2.71,10.15-4.42,15.69-4.04
		c7.24-0.07,13.73,3.68,19.1,8.22c-0.97-1.54-1.98-2.97-3.05-4.42c0.67-2.11,1.73-4.24,1.35-6.5c-2.01-0.24-4.02-0.51-6.02-0.77
		C451.31,435.44,448.42,430.37,445.84,425.15z M134.25,27.95c0.06,22.36,0.06,44.73-0.01,67.09c1.53-0.01,3.06-0.02,4.6-0.03
		c-0.02-22.38,0.02-44.76-0.01-67.13C137.3,27.9,135.78,27.92,134.25,27.95z M349.96,30.32c-1.58,0.02-3.28-0.02-4.64,0.92
		c-4.68,2.6-2.61,10.45,2.72,10.47c35.98,0.16,71.97,0.02,107.95,0.08c2.33,0.16,4.91-0.71,6.05-2.89c2.51-3.56-0.8-8.9-5.07-8.51
		C421.3,30.22,385.63,30.41,349.96,30.32z M974.88,90.76c-0.07-24.7-0.15-49.39,0.01-74.08c-1.5-0.02-2.98-0.05-4.46-0.07
		c0.08,24.77-0.06,49.55,0.06,74.32C971.94,90.87,973.4,90.81,974.88,90.76z M184.88,27.82c-1.49,0.07-2.97,0.14-4.45,0.21
		c0.11,22.3,0.12,44.61,0,66.91c1.44,0.07,2.88,0.13,4.33,0.19l0.19-0.1c-0.2-1.95,0.93-4.25-0.29-5.97
		C185.16,68.69,184.71,48.23,184.88,27.82z M958,16.65c-1.45-0.02-2.88-0.04-4.31-0.07c-0.01,24.79-0.02,49.58,0.02,74.37
		c1.42-0.06,2.85-0.11,4.29-0.15V16.65z M965,19.42c-0.38,23.81,0.05,47.63-0.2,71.44c1.44-0.02,2.89-0.03,4.36-0.02
		c-0.05-24.73-0.1-49.46,0-74.18c-1.46-0.01-2.9-0.02-4.34-0.03c0.02,0.65,0.07,1.97,0.09,2.62L965,19.42z M946.72,90.79
		c-0.15-24.74,0.08-49.48-0.09-74.22c-1.05,0.01-3.14,0.04-4.18,0.06c-0.14,24.72,0.07,49.44-0.09,74.16
		C943.8,90.8,945.25,90.8,946.72,90.79z M143.8,95.36c0.84-0.52,1.19-1.28,1.05-2.28c-0.03-21.04-0.02-42.07,0-63.11
		c0.16-1.02-0.19-1.79-1.03-2.32l-1.94,0.1c-0.42,0.09-1.25,0.28-1.66,0.37c-0.15,22.27,0.04,44.55-0.09,66.82
		c0.49,0,1.46,0,1.94-0.01L143.8,95.36z M925.53,90.86c1.43-0.02,2.86-0.04,4.31-0.05c-0.05-24.7-0.17-49.4,0.04-74.09
		c-1.47-0.05-2.92-0.09-4.37-0.13C925.56,41.35,925.48,66.1,925.53,90.86z M132.99,95.09c-0.02-22.42,0.03-44.84-0.02-67.25
		c-1.47,0.02-2.93,0.04-4.39,0.06c0.02,22.38,0.03,44.76,0.01,67.14C130.05,95.06,131.52,95.07,132.99,95.09z M924.1,90.81
		c0.04-24.72-0.0699-49.45,0.07-74.17c-1.42,0-2.83-0.01-4.23-0.01c0.03,24.74,0.07,49.47-0.02,74.21
		C921.3,90.82,922.7,90.81,924.1,90.81z M912.98,90.8c0.04-24.72-0.01-49.44,0.04-74.16c-1.49-0.01-2.96-0.03-4.42-0.04
		c0.06,24.78-0.03,49.56,0.04,74.33C910.07,90.88,911.52,90.84,912.98,90.8z M963.49,90.91c0.02-24.92,0.21-49.86-0.12-74.78
		l-1.58,0.88c-0.56,23.93,0.08,47.87-0.31,71.81c-0.2-24.04,0.04-48.08-0.09-72.12c-0.52,0.09-1.56,0.26-2.08,0.35
		c-0.12,24.57,0.03,49.16-0.08,73.74C960.64,90.82,962.06,90.86,963.49,90.91z M447.17,496.73c13.61-2.4,23.41-17.08,20.22-30.58
		c-2.48-13.89-17.7-23.75-31.37-20.01c-13.49,2.81-22.8,17.67-19.29,31.04C419.5,490.46,433.89,499.86,447.17,496.73z M470.35,61.21
		c-1.28-1.56-2.6-3.66-4.73-3.98c-1.51-0.5-3.04-0.74-4.61-0.72c-38.65,0.04-77.31,0.02-115.96,0.02c-1.61,0.03-3.21,0.12-4.8,0.29
		c-2,1-3.86,2.31-4.98,4.3c-0.19,0.57-0.56,1.69-0.75,2.26c45.53-0.05,91.06,0,136.59-0.02C470.92,62.82,470.54,61.74,470.35,61.21z
		 M465.18,456.19c1.85,3.77,3.88,7.59,4.18,11.88c1,7.18-1.39,14.37-5.4,20.27c8.89-1.94,17.59-4.66,26.15-7.74
		c-0.74-0.04-2.23-0.13-2.97-0.17c-4.54-3.57-8.21-8.12-12.1-12.37c0.51-2.02,0.85-4.09,1.08-6.16c-2.15-0.55-4.43-0.01-6.54-0.44
		C467.97,459.82,466.66,457.93,465.18,456.19z M81.13,95.35c0.07-22.49-0.07-44.98,0.06-67.46c-1.5,0-3,0.01-4.49,0.01
		c0.12,22.4,0.11,44.81,0,67.21l1.26-0.03c0.44-0.05,1.32-0.14,1.76-0.19L81.13,95.35z M115.82,27.85
		c-1.52,0.03-3.04,0.06-4.55,0.09c0,22.36,0.07,44.71-0.02,67.07c1.52,0.01,3.04,0.03,4.56,0.04
		C115.77,72.65,115.78,50.25,115.82,27.85z M306.05,66.12c-23.37-0.03-46.76-0.03-70.13,0.02c-4.95-0.07-9.27,4.88-8.32,9.78
		c0.24,2.39,1.95,4.11,3.5,5.77h0.55c2.77,1.83,6.27,1.14,9.4,1.3c20.09-0.1,40.18,0.16,60.27-0.13c3.58,0.19,7.75,0.8,10.74-1.68
		c3.84-2.96,4.17-9.49,0.49-12.7C310.87,66.75,308.41,66.05,306.05,66.12z M276.45,103.04c2.37-6.36,10.09-10.27,16.58-8.01
		c3.5,0.89,6.06,3.59,8.13,6.4l0.14,0.04c1.86,4.32,1.31,9.05,1.36,13.62c0.92-0.01,2.76-0.01,3.68-0.01
		c-0.09-9.16,0.11-18.32-0.12-27.48c0.5-1.02,1.05-2.02,1.65-3c-23.84,0.23-47.7-0.09-71.54,0.16c0.13,10.06,0.17,20.11-0.01,30.17
		c13.03,0.32,26.07,0.05,39.11,0.14C275.45,111.06,274.96,106.87,276.45,103.04z M277.06,115.07c7.98,0.02,15.96-0.03,23.94,0.02
		c-0.13-5.11,0.96-11.1-3.06-15.1c-4.62-5.47-14.02-5.11-18.27,0.63C276.18,104.62,277.22,110.21,277.06,115.07z M122.93,95.08
		l1.25,0.32l0.98-0.57c0.49,0.08,1.49,0.23,1.99,0.31c-0.07-22.43,0.01-44.86-0.02-67.29c-1.41,0.02-2.81,0.05-4.22,0.07
		C123.03,50.3,122.99,72.69,122.93,95.08z M198.84,93.71c0.32-21.37,0.15-42.75,0.09-64.12l-1.31,0.01
		c0.2,21.13-0.14,42.27,0.16,63.39L198.84,93.71z M86.98,95.05c0.01-22.39,0-44.78-0.01-67.17c-1.47,0-2.94,0.01-4.4,0.02
		c-0.03,22.4,0.04,44.79-0.02,67.18C84.02,95.07,85.5,95.06,86.98,95.05z M88.36,28.33c-0.15,22.1-0.05,44.21-0.05,66.3
		c0.36,0.16,1.08,0.47,1.44,0.62l1.58,0.02c0.34-0.14,1.02-0.41,1.36-0.54c0.17-22.26,0.05-44.52,0.04-66.78
		c-0.36-0.01-1.07-0.03-1.42-0.04l-1.56-0.3C89.41,27.79,88.71,28.15,88.36,28.33z M98.41,27.87c-1.47,0-2.94-0.01-4.41-0.02v67.2
		c1.47,0.01,2.94,0.02,4.41,0.03C98.46,72.68,98.43,50.28,98.41,27.87z M100.92,95.41l1.1-0.6c0.52,0.09,1.58,0.25,2.11,0.34
		c-0.07-22.43-0.05-44.85-0.01-67.28l-1.16,0.01h-2.03l-1.14-0.02c0.06,22.37,0.01,44.74,0.02,67.11L100.92,95.41z M105.6,95.08
		c1.46-0.01,2.92-0.02,4.39-0.03c0.01-22.38,0.02-44.76-0.01-67.15c-1.46-0.02-2.93-0.04-4.39-0.07
		C105.57,50.25,105.5,72.67,105.6,95.08z M121.51,29.97c0.14-1.1-0.25-1.98-1.2-2.63L119.1,28c-1.77-0.52-2.39,0-1.86,1.57
		c-0.41,21.8-0.07,43.63-0.17,65.44c0.81,0.06,2.41,0.19,3.21,0.26c0.29-0.18,0.87-0.55,1.16-0.73
		C121.52,73.02,121.45,51.5,121.51,29.97z M116.78,26.16c24.96-0.11,49.93,0.15,74.89-0.12c2.79-0.13,5.73,0.05,7.97,1.91
		c0.12,0.48,0.35,1.44,0.46,1.92c0.46,19.02,0.04,38.06,0.29,57.08c0.05,2.81-0.25,5.6-0.65,8.38c1.87-0.04,3.73-0.09,5.61-0.09
		c1.38,0.17,2.74,0.62,3.8,1.56c5.58,4.46,11.19,8.88,16.83,13.28c2.66,2.06,5.16,4.67,8.69,5.11c0.14-9.98,0.15-19.96,0.04-29.93
		l-0.5-0.31c-3.38-1.41-6.53-3.54-7.93-7.08l-0.33-0.66c-1.13-5.16,1.86-10.56,6.79-12.4c4.54-0.32,9.1-0.23,13.66-0.26
		c0.46-1.52,0.91-3.05,1.44-4.55c1.98-2.46,4.84-4.45,8.14-4.21c10.67-0.11,21.35-0.03,32.02-0.06c2.35-0.12,4.6,0.62,6.63,1.77
		c0.67,0.78,1.35,1.55,2,2.35c0.69,1.54,1.27,3.13,1.85,4.72c3.48-0.02,6.98-0.28,10.44,0.24c3.05,0.38,5.08,2.89,7.14,4.89
		c0.58-1.13,1.16-2.27,1.78-3.39c0.52-0.96,1.1-1.86,1.76-2.73c4.27-0.63,8.63-0.13,12.94-0.36c1.46-4.34,5.01-8.18,9.84-8.37
		c1.75-0.05,3.5-0.01,5.26,0c-0.08-3.84-0.05-7.68,0.05-11.51c-0.42-0.08-1.26-0.22-1.68-0.3c-1.31-0.76-2.56-1.62-3.78-2.5
		c-0.59-1.71-1.1-3.44-1.62-5.16c0.67-1.47,1.39-2.93,2.18-4.34c2.26-2.01,5.25-2.57,8.2-2.45c34.65-0.12,69.3,0.07,103.95-0.03
		c3.74-0.43,7.38,1.21,9.2,4.56c0.28,1.63,0.46,3.28,0.6,4.94c-1.45,2.06-3.08,4.21-5.55,5.06l-1.24,0.12
		c0.04,3.86,0.09,7.72,0.14,11.59c1.62,0.02,3.24,0.04,4.87,0.1c5.25-0.08,8.57,4.42,10.41,8.78c1.02-2.32,1.9-4.69,2.54-7.14
		c0.63-2.4,1.31-4.79,1.95-7.19c1.94-6.66,3.52-13.44,5.75-20.01c5.76-0.83,11.63-0.24,17.44-0.4C504.32,29,507.6,29,510.88,29
		c46.67-0.05,93.35,0.03,140.03-0.01c6.47,0.01,12.9301,0.02,19.4,0c70.42,0.03,140.83-0.04,211.24-0.02
		c0.04,0.52,0.1,1.57,0.14,2.09c0.07,2.1,0.12,4.21,0.13,6.32c-0.06,1.28-0.1,2.57-0.11,3.86c-0.08,5.1-0.04,10.21,0.18,15.3
		c-0.56,15.18-0.08,30.39-0.22,45.58c-0.07,4.23-0.04,8.47,0.1,12.7c1.31,0.07,2.62,0.15,3.95,0.22
		c-1.27-5.39-0.55-10.96-0.85-16.44c0-2.21,0.77-4.3,1.86-6.2c2.63-1.72,5.81-1.68,8.84-1.58c-1.01-1.62-2.04-3.26-2.6-5.09
		c0.59-16.03,0.33-32.11,0.16-48.15c0.17-4.85,0.17-9.7,0.12-14.56c-0.34-3.14,1.33-6.05,3.94-7.73c2.23-0.26,4.49-0.3,6.75-0.29
		c24.69-0.02,49.39,0.01,74.08,0c3.3-0.41,5.92,2.02,7.28,4.78c0.08,3.93,0,7.85,0.24,11.77c-0.46,12.82,0.01,25.64-0.18,38.46
		c-0.23,6.86,0.71,13.83-0.96,20.58c1.9,0.13,3.8199,0.26,5.74,0.38c2.1,1.98,3.9,4.36,4,7.38c-0.38,5.48,0.32,11.05-0.93,16.46
		c5.07,0.08,10.15,0.39,15.22-0.06c3.42,0.06,6.85,0.1,10.24,0.64c4.27,1.45,8.57,3.35,11.6201,6.79
		c1.21,1.37,2.35,2.81,3.4299,4.29l0.1801,0.44c1.41,3.19,2.6799,6.54,2.75,10.08c0.16,9.59,0.09,19.18,0.03,28.77h-0.8101
		c-0.02-0.74-0.04-2.23-0.0599-2.98l-0.91-0.05c0.14-8.24,0.0399-16.48,0.08-24.72c0.15-9.01-6.22-17.81-14.94-20.22
		c-2.59-0.81-5.3-1.11-7.99-1.05c-7.19,0.06-14.37-0.08-21.54,0.07l-0.25-0.14c-36.5,0.28-73,0.02-109.5,0.12
		c-0.21-0.12-0.63-0.36-0.84-0.49c0.27-28.52,0.02-57.04,0.12-85.56c-131.74,0.03-263.48-0.05-395.22,0.03
		c-3.16,11.43-6.36,22.84-9.58,34.25c-51.53-0.06-103.05,0.03-154.58-0.05c-1.36,2.97-4.3,5.55-3.88,9.06
		c0.44,4.53-2.73,8.59-6.83,10.18c-0.78,1.52-2.07,2.96-1.95,4.78c0.02,9.11-0.04,18.23,0.03,27.35c-0.39,0.14-1.16,0.41-1.55,0.55
		c-86.82-0.31-173.64-0.08-260.47-0.2c-1.9-0.03-3.79,0.19-5.65,0.54c-9.56,1.1-17.34,10.24-17.53,19.79
		c-0.08,8.5,0.07,17-0.07,25.5c0.45,0.01,1.37,0.03,1.82,0.04c0.79,1.81,2.96,1.18,4.47,1.38c90.96-0.1,181.93,0.08,272.89-0.03
		c1.17,0.18,2.29,0.55,3.36,1.12c-10.37,20.95-7.74,47.54,6.66,65.98c9.86,13.02,24.9,22.02,41.09,24.33
		c17.22,2.71,35.41-2.3,48.96-13.24c9.72-7.74,17.05-18.43,20.81-30.28c5.02-15.6,3.61-33.15-3.83-47.76
		c5.67,0.02,11.34-0.39,17-0.02c0.13,29.96,0.02,59.93,0,89.9c0,1.57,0.16,3.21,1.09,4.55c0.03,0.43,0.09,1.28,0.12,1.71
		c1.83-3.62,2.85-7.61,4.83-11.15c0.15,0.6,0.44,1.79,0.59,2.39c-1.71,4.21-3.56,8.37-5,12.69c0.08,2.43,3.21,4.15,2.36,6.89
		c-1.2,2.08-3.81,2.37-5.81,3.3c-1.55,5.04-2.84,10.15-4.01,15.29c1.21,1.66,3.31,3.06,3.47,5.25c-0.24,2.78-3.41,3.35-5.37,4.61
		c-0.93,5.15-1.4,10.36-1.97,15.56c1.59,1.81,4.64,3.23,3.95,6.12c-0.69,2.24-3.87,2.49-4.61,4.65c-0.34,5.03-0.17,10.08-0.02,15.12
		c1.54,1.29,3.73,2.14,4.58,4.07c0.72,2.85-2.3,4.32-3.89,6.09c0.64,5.17,0.85,10.44,2.07,15.52c2.07,1.47,5.54,2.21,5.3,5.42
		c-0.89,1.68-2.25,3.04-3.5,4.45c1.16,5.16,2.45,10.3,4.02,15.37c1.77,0.79,3.87,1.11,5.31,2.48c1.66,2.57-0.78,4.91-2.13,6.93
		c1.63,5.01,3.73,9.85,5.81,14.69c1.89,0.71,4.27,0.68,5.79,2.13c1.67,2.31-0.45,4.89-1.26,7.09c2.29,4.67,4.97,9.13,7.57,13.63
		c2.2,0.54,5.32-0.16,6.65,2.17c1.2,2.27-1.07,4.47-0.77,6.76c2.81,4.24,6.01,8.22,9.1,12.26c2.17,0.3,5.14-0.99,6.62,1.13
		c1.7,1.87-0.01,4.54,0.03,6.74c3.62,3.77,7.08,7.71,10.99,11.21c2.18-0.04,4.81-1.46,6.66,0.31c1.66,1.74,0.6,4.28,0.7,6.41
		c3.96,3.41,7.93,6.84,12.24,9.81c2.43-0.06,5.17-2.37,7.19-0.09c1.39,1.7,0.81,4.17,1.26,6.21c4.41,2.7,8.79,5.47,13.27,8.07
		c2.11-0.68,4.35-2.69,6.6-1.47c2.32,1.1,1.42,4.3,2.68,6.16c4.47,2.45,9.25,4.3,13.9,6.41c1.8199-0.88,3.48-2.22,5.5-2.62
		c3.08,0.39,3.28,3.94,4.36,6.23c4.89,1.51,9.75,3.16,14.74,4.32c1.94-0.95,3.63-3.27,5.87-3.07l-0.06,1.07
		c-1.95,1.11-3.53,3-5.65,3.69c-5.5-1.15-10.78-3.09-16.14-4.72c-1.04-1.94-1.11-4.73-3.1-5.9c-1.92,0.61-3.44,2.11-5.38,2.61
		c-4.39-1.17-8.2-4.03-12.63-4.93l0.94-0.43c-11.92-0.62-23.88-0.1-35.81-0.27H240.02c-51.46,0.11-102.93-0.2-154.39,0.15
		l-0.68-0.16l-0.58,0.1801c-20.52-0.4-41.07-0.05-61.6-0.19c0.01,0.49,0.02,1.47,0.02,1.95c0.18,5.01-0.65,10.28,1.4,15.03
		c2.46,6.5,8.33,11.55,15.09,13.11c2.28,0.45,4.6,0.53,6.92,0.53v1.52c-1.58,0-3.17,0-4.75,0c-6.74-0.49-12.51-4.74-16.59-9.89
		c-1.12-2.2-2.15-4.44-3.29-6.63c-0.51-3.13-0.72-6.31-0.69-9.47c0-54.41-0.05-108.82,0-163.23c0.03-0.44,0.1-1.3,0.13-1.73
		c0.24-3.5,0.19-7.02-0.03-10.52c0.3-31.5,0.03-63.02,0.14-94.53c0.03-3.11-0.08-6.22-0.22-9.33v-0.3
		c0.42-16.94,0.23-33.9,0.08-50.84c0.3-8.96,0.17-17.92,0.04-26.88c0-9.21-0.05-18.42,0-27.63c-0.02-4.61,1.59-9.09,4.02-12.96
		c3.21-4.64,8.07-7.98,13.53-9.4c1.9-0.55,3.41-1.87,4.93-3.06c6.12-4.95,12.37-9.72,18.46-14.7c1.4-1.15,2.92-2.22,4.7-2.67
		c2.14,0.04,4.27,0.13,6.41,0.22c-1.15-3.92-0.99-8.03-0.99-12.06c0.11-13.41,0.05-26.83,0.07-40.25c0.02-3.6,0.03-7.21-0.31-10.8
		c0.42-1.6,0.44-3.51,1.76-4.7c1.97-2.06,5.13-1.33,7.68-1.5c5.96,0.09,11.93-0.01,17.9,0.02c5.54,0.03,11.08-0.01,16.63,0
		L116.78,26.16z M145.91,27.86c0.05,22.4,0.04,44.8,0.01,67.2c1.42,0,2.85,0.01,4.29,0.01c0-22.39-0.03-44.78,0.03-67.17
		C148.79,27.89,147.35,27.87,145.91,27.86z M902.96,16.63c0.08,24.72,0.1,49.44,0.0099,74.16c1.44,0.02,2.89,0.05,4.35,0.09
		c-0.05-24.75-0.03-49.5-0.01-74.25H902.96z M947.97,90.84c1.41,0.03,2.84,0.06,4.28,0.11c-0.01-24.78-0.05-49.56,0.02-74.34
		c-1.44,0.01-2.88,0.02-4.3,0.03C948.02,41.38,948.02,66.11,947.97,90.84z M896.07,83.02c-0.24-21.44,0.4-42.91-0.32-64.33
		c-1.28,2.57-0.57,5.54-0.75,8.29c0.19,20.48-0.38,41,0.3,61.46C896.55,86.9,895.92,84.83,896.07,83.02z M161.9,95.08
		c-0.05-22.4-0.05-44.81,0.01-67.21c-1.52,0.03-3.04,0.07-4.56,0.13c0.01,22.31,0.09,44.62-0.04,66.93
		C158.84,94.98,160.37,95.03,161.9,95.08z M901.79,90.94c-0.06-24.79-0.12-49.58,0.04-74.36c-1.54,0.1-3.05,0.32-4.53,0.62
		c0.12,24.28,0.24,48.57-0.05,72.84C898.69,90.59,900.23,90.8,901.79,90.94z M174.73,27.93c0.07,22.39,0.05,44.78,0.01,67.17
		l1.39-0.01c0.46-0.01,1.38-0.04,1.84-0.05l1.06,0.06c-0.2-21.57,0.28-43.16-0.24-64.71c0.11-0.64,0.32-1.91,0.43-2.54H176
		L174.73,27.93z M984.97,92.25c-31.53,0.2-63.1-0.31-94.6,0.26c-2.06,0.47-3.87,2.42-3.85,4.59c-0.12,4.59-0.07,9.19-0.02,13.79
		c0,1.92,1.06,4.7,3.46,4.17c33.02,0.03,66.05,0,99.07,0c2.97,0.04,3.28-3.79,3.1899-6.01c-0.12-4.33,0.26-8.68-0.23-13
		C991.14,93.05,987.81,91.87,984.97,92.25z M914.18,16.74c0.18,24.69,0.1,49.38,0.03,74.06c1.45,0,2.9,0.01,4.37,0
		c-0.15-24.76,0.02-49.51-0.1-74.27C917.03,16.6,915.6,16.67,914.18,16.74z M206.83,97.07c-46.96-0.08-93.92,0.05-140.87-0.06
		c-7.43,5.85-15.04,11.5-22.21,17.67c61.74,0.18,123.48,0.19,185.22-0.01C221.71,108.65,214.12,103.05,206.83,97.07z M167.51,95.07
		c0.26-22.34-0.09-44.69,0.17-67.03c-1.5-0.03-3-0.08-4.5-0.16c0.06,22.34-0.03,44.68,0.06,67.01c0.53-0.03,1.59-0.09,2.12-0.12
		l0.31-0.16C166.13,94.73,167.05,94.96,167.51,95.07z M169.04,27.89c0.06,22.26-0.08,44.53,0.06,66.8l2.33,0.87
		c0-0.02-0.01-0.04-0.01-0.06c0.08,0.08,0.2,0.14,0.35,0.14c0.05,0,0.1-0.02,0.15-0.03c0.01,0.09,0.02,0.18,0.03,0.27l1.31-1.65
		c0.15-22.1,0.03-44.22,0.06-66.33C171.89,27.9,170.47,27.89,169.04,27.89z"/>
	<path fill="#12110D" stroke="#12110D" stroke-width="0.3" d="M462.32,452.36C462.86,452.87,462.86,452.87,462.32,452.36"/>
	<path fill="#FFF6E9" stroke="#FFF6E9" stroke-width="0.3" d="M897.3,17.2c1.48-0.3,2.99-0.52,4.53-0.62
		c-0.16,24.78-0.1,49.57-0.04,74.36c-1.56-0.14-3.1-0.35-4.54-0.9C897.54,65.77,897.42,41.48,897.3,17.2 M899.48,88.9
		c0.17-23.6,0.21-47.21-0.02-70.81C899.42,41.69,899.32,65.3,899.48,88.9z"/>
	<path fill="#FFF6E9" stroke="#FFF6E9" stroke-width="0.3" d="M902.96,16.63c1.44,0,2.89,0,4.35,0c-0.02,24.75-0.04,49.5,0.01,74.25
		c-1.46-0.04-2.91-0.07-4.35-0.09C903.06,66.07,903.04,41.35,902.96,16.63 M904.52,17.78c0.58,1.01,0.89,2.09,0.93,3.24
		c0.03,22.62-0.15,45.25,0.04,67.88c0.19-22.63-0.01-45.26,0.1-67.88C905.64,19.81,905.5,18.59,904.52,17.78z"/>
	<path fill="#F7EADD" stroke="#F7EADD" stroke-width="0.3" d="M908.6,16.6c1.46,0.01,2.9301,0.03,4.42,0.04
		c-0.05,24.72,0,49.44-0.04,74.16c-1.46,0.04-2.91,0.08-4.34,0.13C908.57,66.16,908.66,41.38,908.6,16.6z"/>
	<path fill="#FFF6E9" stroke="#FFF6E9" stroke-width="0.3" d="M914.18,16.74c1.42-0.07,2.85-0.14,4.3-0.21
		c0.12,24.76-0.05,49.51,0.1,74.27c-1.47,0.01-2.92,0-4.37,0C914.28,66.12,914.36,41.43,914.18,16.74 M916.48,88.85
		c0.18-23.58,0.13-47.17,0.03-70.74C916.33,41.69,916.46,65.27,916.48,88.85z"/>
	<path fill="#FEF8EC" stroke="#FEF8EC" stroke-width="0.3" d="M919.94,16.63c1.4,0,2.81,0.01,4.23,0.01
		c-0.14,24.72-0.03,49.45-0.07,74.17c-1.4,0-2.8,0.01-4.18,0.03C920.01,66.1,919.97,41.37,919.94,16.63 M921.13,17.65
		c-0.35,22.45,0.2,44.92-0.16,67.38c0.17,1.61-0.5099,4.2,1.9,4.2c0.38-5.74,0.07-11.49,0.11-17.23
		c-0.28-17.35,0.24-34.71-0.07-52.06C923.02,18.66,922.43,17.89,921.13,17.65z"/>
	<path fill="#FFF6E9" stroke="#FFF6E9" stroke-width="0.3" d="M925.51,16.59c1.45,0.04,2.9,0.08,4.37,0.13
		c-0.21,24.69-0.09,49.39-0.04,74.09c-1.45,0.01-2.88,0.03-4.31,0.05C925.48,66.1,925.56,41.35,925.51,16.59 M927.53,88.78
		c0.08-23.57,0.04-47.14-0.01-70.72C927.32,41.63,927.41,65.21,927.53,88.78z"/>
	<path fill="#FFF6E9" stroke="#FFF6E9" stroke-width="0.3" d="M931.06,16.66c1.44-0.02,2.89-0.03,4.36-0.04
		c-0.11,24.75,0,49.51-0.07,74.27c-1.43-0.04-2.84-0.07-4.24-0.09C931.09,66.08,931.19,41.37,931.06,16.66 M933.51,18.04
		c-0.16,23.6-0.11,47.2,0,70.8C933.71,65.24,933.58,41.64,933.51,18.04z"/>
	<path fill="#FFFFFF" stroke="#FFFFFF" stroke-width="0.3" d="M936.89,16.65c1.36,0,2.74,0,4.12-0.01
		c-0.01,0.57-0.03,1.71-0.04,2.28c-0.86,0-3.1899-1.9-2.79,0.08c-0.19,14.99,0,30-0.27,45c0.13,8.75-0.48,17.55,0.51,26.28
		c2.14-2.24,1.35-5.49,1.51-8.28c0.31-15.69-0.32-31.37-0.11-47.06c0.18-5.16-0.62-10.48,1.04-15.49
		c0.26,23.77,0.04,47.56,0.09,71.34c-1.36,0.01-2.72,0.02-4.06,0.04C936.93,66.1,936.91,41.38,936.89,16.65z"/>
	<path fill="#FFF6E9" stroke="#FFF6E9" stroke-width="0.3" d="M942.36,90.79c0.16-24.72-0.05-49.44,0.09-74.16
		c1.04-0.02,3.13-0.05,4.18-0.06c0.17,24.74-0.06,49.48,0.09,74.22C945.25,90.8,943.8,90.8,942.36,90.79 M944.52,88.88
		c0.12-23.58,0.08-47.16-0.02-70.74C944.41,41.72,944.36,65.3,944.52,88.88z"/>
	<path fill="#F3EBDC" stroke="#F3EBDC" stroke-width="0.3" d="M947.97,16.64c1.42-0.01,2.86-0.02,4.3-0.03
		c-0.07,24.78-0.03,49.56-0.02,74.34c-1.44-0.05-2.87-0.08-4.28-0.11C948.02,66.11,948.02,41.38,947.97,16.64z"/>
	<path fill="#F3EBDB" stroke="#F3EBDB" stroke-width="0.3" d="M953.69,16.58c1.43,0.03,2.86,0.05,4.31,0.07c0,24.72,0,49.44,0,74.15
		c-1.44,0.04-2.87,0.09-4.29,0.15C953.67,66.16,953.68,41.37,953.69,16.58z"/>
	<path fill="#FFF6E9" stroke="#FFF6E9" stroke-width="0.3" d="M959.31,17.05c0.52-0.09,1.56-0.26,2.08-0.35
		c0.13,24.04-0.11,48.08,0.09,72.12c0.39-23.94-0.25-47.88,0.31-71.81l1.58-0.88c0.33,24.92,0.14,49.86,0.12,74.78
		c-1.43-0.05-2.85-0.09-4.26-0.12C959.34,66.21,959.19,41.62,959.31,17.05z"/>
	<path fill="#FEFBEF" stroke="#FEFBEF" stroke-width="0.3" d="M964.82,16.63c1.44,0.01,2.88,0.02,4.34,0.03
		c-0.1,24.72-0.05,49.45,0,74.18c-1.47-0.01-2.92,0-4.36,0.02c0.25-23.81-0.18-47.63,0.2-71.44c2.09,3.12,1.08,7.03,1.25,10.54
		c0.06,19.81-0.09,39.64,0.15,59.45c1.17-0.76,1.52-2.04,1.41-3.38c-0.24-22.64-0.06-45.27-0.02-67.91
		c-0.97,0.38-1.93,0.76-2.88,1.13C964.89,18.6,964.84,17.28,964.82,16.63z"/>
	<path fill="#FFF6E9" stroke="#FFF6E9" stroke-width="0.3" d="M970.43,16.61c1.48,0.02,2.96,0.05,4.46,0.07
		c-0.16,24.69-0.08,49.38-0.01,74.08c-1.48,0.05-2.94,0.11-4.39,0.17C970.37,66.16,970.51,41.38,970.43,16.61 M972.36,22.02
		c0.14,22.29-0.04,44.57,0.12,66.85c0.22-20.62,0.07-41.24,0.1-61.86c0.11-3.03-0.58-6.26,0.86-9.07
		C972.04,18.86,972.44,20.62,972.36,22.02z"/>
	<path fill="#F7F0E3" stroke="#F7F0E3" stroke-width="0.3" d="M976,16.6c1.47,0.03,2.95,0.08,4.44,0.14
		c-0.12,24.69,0.04,49.39-0.09,74.08c-1.45,0-2.89,0-4.3199,0.01C976.06,66.08,976.16,41.34,976,16.6z"/>
	<path fill="#AC8A66" stroke="#AC8A66" stroke-width="0.3" d="M899.48,88.9c-0.16-23.6-0.06-47.21-0.02-70.81
		C899.69,41.69,899.65,65.3,899.48,88.9z"/>
	<path fill="#937759" stroke="#937759" stroke-width="0.3" d="M904.52,17.78c0.98,0.81,1.12,2.03,1.07,3.24
		c-0.11,22.62,0.09,45.25-0.1,67.88c-0.19-22.63-0.01-45.26-0.04-67.88C905.41,19.87,905.1,18.79,904.52,17.78z"/>
	<path fill="#81664D" stroke="#81664D" stroke-width="0.3" d="M916.48,88.85c-0.02-23.58-0.15-47.16,0.03-70.74
		C916.61,41.68,916.66,65.27,916.48,88.85z"/>
	<path fill="#F1EADD" stroke="#F1EADD" stroke-width="0.3" d="M921.13,17.65c1.3,0.24,1.89,1.01,1.78,2.29
		c0.31,17.35-0.21,34.71,0.07,52.06c-0.04,5.74,0.27,11.49-0.11,17.23c-2.41,0-1.73-2.59-1.9-4.2
		C921.33,62.57,920.78,40.1,921.13,17.65z"/>
	<path fill="#81664D" stroke="#81664D" stroke-width="0.3" d="M927.53,88.78c-0.1201-23.57-0.21-47.15-0.01-70.72
		C927.57,41.64,927.61,65.21,927.53,88.78z"/>
	<path fill="#937759" stroke="#937759" stroke-width="0.3" d="M933.51,18.04c0.07,23.6,0.2,47.2,0,70.8
		C933.4,65.24,933.35,41.64,933.51,18.04z"/>
	<path fill="#F2E1D1" stroke="#F2E1D1" stroke-width="0.3" d="M938.18,19c-0.4-1.98,1.93-0.08,2.79-0.08l-0.11,0.53
		c-1.66,5.01-0.86,10.33-1.04,15.49c-0.21,15.69,0.42,31.37,0.11,47.06c-0.16,2.79,0.63,6.04-1.51,8.28
		c-0.99-8.73-0.38-17.53-0.51-26.28C938.18,49,937.99,33.99,938.18,19z"/>
	<path fill="#81664D" stroke="#81664D" stroke-width="0.3" d="M944.52,88.88c-0.16-23.58-0.11-47.16-0.02-70.74
		C944.6,41.72,944.64,65.3,944.52,88.88z"/>
	<path fill="#F2E1D1" stroke="#F2E1D1" stroke-width="0.3" d="M964.91,19.25c0.95-0.37,1.91-0.75,2.88-1.13
		c-0.04,22.64-0.22,45.27,0.02,67.91c0.11,1.34-0.24,2.62-1.41,3.38c-0.2401-19.81-0.09-39.64-0.15-59.45
		c-0.17-3.51,0.84-7.42-1.25-10.54L964.91,19.25z"/>
	<path fill="#AC8A66" stroke="#AC8A66" stroke-width="0.3" d="M972.36,22.02c0.08-1.4-0.32-3.16,1.08-4.08
		c-1.44,2.81-0.75,6.04-0.86,9.07c-0.03,20.62,0.12,41.24-0.1,61.86C972.32,66.59,972.5,44.31,972.36,22.02z"/>
	<path fill="#FEFEFD" stroke="#FEFEFD" stroke-width="0.3" d="M982.13,17.65c0.86,1.67,1.74,3.43,1.57,5.38
		c-0.01,19.99-0.06,39.98,0.01,59.98c-0.03,2.22,0.14,4.91-1.86,6.41c-0.09-21.78,0.02-43.57-0.05-65.35
		C981.77,21.92,981.67,19.76,982.13,17.65z"/>
	<path fill="#FCFBF5" stroke="#FCFBF5" stroke-width="0.3" d="M895,26.98c0.18-2.75-0.53-5.72,0.75-8.29
		c0.72,21.42,0.08,42.89,0.32,64.33c-0.15,1.81,0.48,3.88-0.77,5.42C894.62,67.98,895.19,47.46,895,26.98z"/>
	<path fill="#F9E9D8" stroke="#F9E9D8" stroke-width="0.3" d="M345.32,31.24c1.36-0.94,3.06-0.9,4.64-0.92
		c35.67,0.09,71.34-0.1,107.01,0.07c4.27-0.39,7.58,4.95,5.07,8.51c-1.14,2.18-3.72,3.05-6.05,2.89
		c-35.98-0.06-71.97,0.08-107.95-0.08C342.71,41.69,340.64,33.84,345.32,31.24z"/>
	<path fill="#060400" stroke="#060400" stroke-width="0.3" d="M513.17,41.25c8.56-4.65,18.66-6.71,28.31-4.93
		c11.26,1.61,21.87,7.94,28.46,17.24c10.55,13.32,11.7,33.29,3.04,47.84c-5.16,9.72-14.42,17.05-24.83,20.43
		c-12.84,4.14-27.69,2.1-38.66-5.85c-14.13-9.47-21.69-27.8-18.1-44.45C493.5,58.8,502,47.53,513.17,41.25 M527.99,37.75
		c-2.63,1.73-6.3,0.3-8.16,3.21c-0.43-0.18-1.27-0.55-1.69-0.73c-1.94,2.77-6.06,2.23-7.52,5.34c-1.98,0.22-3.53,1.35-4.1,3.28
		c-1.24,0.54-2.69,0.91-3.14,2.35c-0.85,2.26-4.07,2.97-3.7,5.79c-1.72,1.08-3.07,2.55-2.74,4.74c-1.73,1.22-2.37,3.08-2.11,5.15
		c-1.53,1.31-1.87,3.1-1.22,4.99c-1.37,1.47-1.7,3.4-0.69,5.17c-1.93,2.48,0.47,5.27-0.6,7.97c1.7,2.53,0.21,5.91,2.62,8.02
		c-0.4,2.01,0.36,3.76,2.01,4.94c-0.14,1.98,0.8,3.69,2.62,4.53c0.36,1.15,0.3,2.63,1.56,3.24c2.34,1.2,2.25,4.72,5.33,4.92
		c0.54,2.03,2.23,3,4.07,3.67c1.22,1.4,2.69,2.74,4.71,2.49c0.82,0.8,1.46,2.17,2.83,2.06c2.63-0.01,4.5,2.91,7.25,1.62
		c1.31,1.64,3.34,1.53,5.17,0.97c0.64,0.25,1.93,0.75,2.58,1c2.64-1.59,5.45,0.39,8.11-1.13c1.88,0.34,3.6-0.11,5.21-1.12
		c1.89,0.05,3.56-0.62,5.01-1.83c2-0.2,3.73-1.08,4.88-2.76c1.99-0.01,3.6-1.11,4.21-3.03c2.01-0.17,3.46-1.46,3.96-3.4
		c1.85-0.72,3.41-2.08,3.54-4.18c1.82-0.76,3.06-2.35,2.87-4.4c2-0.95,2.6-3.02,2.54-5.08c1.03-0.61,1.59-1.49,1.66-2.62
		c-0.19-2.65,1.92-4.79,1.31-7.47c0.63-1.88,1.06-3.87-0.14-5.63c1.81-2.74-0.33-5.65-0.01-8.64c-1.52-2.33-0.31-5.59-2.93-7.24
		c1.31-3.2-3.32-4-2.45-6.92c-2.96-1.52-2.9901-5.64-6.34-6.4c-0.49-1.97-1.87-3.43-3.97-3.56c-0.7-1.98-2.3-3.16-4.4-3.11
		c-1.09-1.66-2.7-2.78-4.75-2.47c-1.28-1.59-3.07-2.33-5.08-1.83c-1.42-1.7-3.52-1.86-5.43-0.94c-0.31-0.36-0.94-1.06-1.25-1.42
		c-2.23,0.43-4.48,0.63-6.68-0.04C531.33,37.8,529.68,38.15,527.99,37.75z"/>
	<path fill="#050200" stroke="#050200" stroke-width="0.3" d="M788.35,56.43c7.15-11.64,20.06-19.5,33.67-20.58
		c14.83-1.24,30.26,5.38,38.96,17.58c10.68,13.58,11.69,33.71,2.88,48.5c-7.21,12.78-21.27,21.39-35.94,21.92
		c-9.62,0.39-19.6-2.12-27.35-7.95c-10-6.7-16.93-17.87-18.48-29.83C780.67,75.88,782.72,65.11,788.35,56.43 M821.42,38.25
		c-1.83-1.14-3.68-0.28-5.24,0.82c-1.82-0.59-3.53,0.11-4.88,1.31c-1.84,0.34-3.91,0.3-4.81,2.26c-2.03,0.19-3.75,1.07-4.89,2.78
		c-1.78,0.6-3.62,1.46-3.99,3.52c-1,0.57-2.62,0.47-2.89,1.85c-0.84,2.51-4.16,3.15-4.02,6.17c-1.01,0.9-2.39,1.6-2.48,3.11
		c-0.37,2.47-3.06,3.92-2.25,6.67c-1.43,1.38-2.05,3.26-1.21,5.14c-2.5,2.2-0.22,5.4-1.66,8.07c1.17,2.16-0.3,4.59,0.88,6.68
		c0.95,1.24,0.1,2.84,0.76,4.17c1.73,2.38,0.65,5.86,3.6,7.42c-0.13,0.41-0.38,1.23-0.51,1.64c0.82,0.99,1.7,1.95,2.83,2.64
		c-0.03,2.21,1.47,3.59,3.33,4.48c0.17,2,1.67,3.26,3.57,3.7c0.51,1.92,2.04,2.99,3.91,3.41c1.22,1.56,2.75,2.94,4.89,2.77
		c0.82,0.72,1.36,2.13,2.66,2.04c2.73-0.18,4.58,2.95,7.35,1.56c1.26,1.72,3.33,1.61,5.15,0.99c2.62,1.84,5.53-0.28,8.41,0.66
		c2.42-1.52,5.49,0.37,7.48-2.15c1.91,0.49,3.7401-0.11,4.94-1.7c2.11,0.1,3.82-0.92,5-2.63c2.15,0.1,3.7-1.22,4.27-3.25
		c0.57-0.05,1.7-0.14,2.26-0.18c0.7-3.26,4.96-3.79,5.11-7.14c1.91-0.79,3.16-2.48,3.11-4.59c1.98-0.85,2.19-2.89,2.48-4.75
		c1.43-1.42,1.92-3.33,1.67-5.3c1.58-1.3,1.27-3.22,1.16-5.03c0.65-1.81,1.11-3.75-0.03-5.47c0.83-1.82,1.3-3.85-0.14-5.52
		c0.58-1.96,0.43-3.98-1.13-5.43c0.54-1.96-0.08-3.88-1.76-5.02c0.46-2.11-0.6-3.78-2.3-4.89c-0.01-2.01-1.03-3.77-2.96-4.45
		c-0.25-2.04-1.4301-3.62-3.51-4.01c-0.51-3.22-4.23-3.27-5.66-5.82c-2.91-0.46-4.39-3.76-7.46-3.28c-1.2401-1.65-3.1-2.37-5.1-1.84
		c-1.36-1.71-3.52-1.92-5.38-0.93c-0.32-0.36-0.95-1.1-1.27-1.46C827.57,38.49,824.24,36.15,821.42,38.25z"/>
	<path fill="#FDFEFD" stroke="#FDFEFD" stroke-width="0.3" d="M527.99,37.75c1.69,0.4,3.34,0.05,4.95-0.5
		c2.2,0.67,4.45,0.47,6.68,0.04c0.31,0.36,0.94,1.06,1.25,1.42c1.91-0.92,4.01-0.76,5.43,0.94c2.01-0.5,3.8,0.24,5.08,1.83
		c2.05-0.31,3.66,0.81,4.75,2.47c2.1-0.05,3.7,1.13,4.4,3.11c2.1,0.13,3.48,1.59,3.97,3.56c3.35,0.76,3.38,4.88,6.34,6.4
		c-0.8701,2.92,3.7599,3.72,2.45,6.92c2.62,1.65,1.41,4.91,2.93,7.24c-0.3199,2.99,1.82,5.9,0.01,8.64c1.2,1.76,0.77,3.75,0.14,5.63
		c0.61,2.68-1.5,4.82-1.31,7.47c-0.07,1.13-0.63,2.01-1.66,2.62c0.06,2.06-0.54,4.13-2.54,5.08c0.19,2.05-1.05,3.64-2.87,4.4
		c-0.13,2.1-1.69,3.46-3.54,4.18c-0.5,1.94-1.95,3.23-3.96,3.4c-0.61,1.92-2.22,3.02-4.21,3.03c-1.15,1.68-2.88,2.56-4.88,2.76
		c-1.45,1.21-3.12,1.88-5.01,1.83c-1.61,1.01-3.33,1.46-5.21,1.12c-2.66,1.52-5.47-0.46-8.11,1.13c-0.65-0.25-1.94-0.75-2.58-1
		c-1.83,0.56-3.86,0.67-5.17-0.97c-2.75,1.29-4.62-1.63-7.25-1.62c-1.37,0.11-2.01-1.26-2.83-2.06c-2.02,0.25-3.49-1.09-4.71-2.49
		c-1.84-0.67-3.53-1.64-4.07-3.67c-3.08-0.2-2.99-3.72-5.33-4.92c-1.26-0.61-1.2-2.09-1.56-3.24c-1.82-0.84-2.76-2.55-2.62-4.53
		c-1.65-1.18-2.41-2.93-2.01-4.94c-2.41-2.11-0.92-5.49-2.62-8.02c1.07-2.7-1.33-5.49,0.6-7.97c-1.01-1.77-0.68-3.7,0.69-5.17
		c-0.65-1.89-0.31-3.68,1.22-4.99c-0.26-2.07,0.38-3.93,2.11-5.15c-0.33-2.19,1.02-3.66,2.74-4.74c-0.37-2.82,2.85-3.53,3.7-5.79
		c0.45-1.44,1.9-1.81,3.14-2.35c0.57-1.93,2.12-3.06,4.1-3.28c1.46-3.11,5.58-2.57,7.52-5.34c0.42,0.18,1.26,0.55,1.69,0.73
		C521.69,38.05,525.36,39.48,527.99,37.75 M528.56,44.75c-18.15,2.7-31.94,21.21-29.25,39.36c1.37,12.11,9.48,23.15,20.61,28.1
		c12.94,6.11,29.37,3.2,39.52-6.86c6.96-6.82,11.11-16.54,10.72-26.32c-0.02-12.78-7.84-25.05-19.18-30.83
		C544.14,44.63,536.14,43.47,528.56,44.75z"/>
	<path fill="#12110D" stroke="#12110D" stroke-width="0.3" d="M615.91,51.04c-0.31-7.58,6.55-14.41,14.1201-14.11
		c26.98-0.04,53.97,0,80.95,0.02c7.52-0.2,13.98,6.61,13.94,14.02c0.14,17.68,0.07,35.37,0.04,53.06c0.13,5.49-2.87,10.8-7.7,13.44
		c-0.71,0.36-1.42,0.7-2.1,1.06c-2.05,0.3-4.1,0.5-6.15,0.51c-25.99-0.07-51.98,0-77.98-0.03c-1.59-0.04-3.17-0.19-4.7401-0.35
		c-3.62-1.41-7.09-3.7-8.8-7.3c-2.06-3.44-1.53-7.57-1.58-11.38C615.94,83.66,615.9,67.35,615.91,51.04 M626.09,39.14
		c-5,1.61-8.72,6.57-8.53,11.88c-0.02,16.32,0,32.64-0.01,48.96c0.03,3.01-0.28,6.12,0.69,9.03c1.67,4.86,6.6,8.42,11.78,8.27
		c27,0.02,54,0.03,81-0.01c6.5,0.09,12.28-5.79,12.19-12.27c0.09-17.96,0.07-35.92,0.0099-53.87c0.23-6.65-5.65-12.7-12.33-12.56
		c-26.3-0.07-52.6,0.02-78.9-0.04C630,38.5,628,38.61,626.09,39.14z"/>
	<path fill="#FDFDFD" stroke="#FDFDFD" stroke-width="0.3" d="M821.42,38.25c2.82-2.1,6.15,0.24,9.29-0.98
		c0.32,0.36,0.95,1.1,1.27,1.46c1.86-0.99,4.02-0.78,5.38,0.93c2-0.53,3.86,0.19,5.1,1.84c3.07-0.48,4.55,2.82,7.46,3.28
		c1.43,2.55,5.15,2.6,5.66,5.82c2.08,0.39,3.26,1.97,3.51,4.01c1.93,0.68,2.95,2.44,2.96,4.45c1.7,1.11,2.76,2.78,2.3,4.89
		c1.6801,1.14,2.3,3.06,1.76,5.02c1.56,1.45,1.71,3.47,1.13,5.43c1.44,1.67,0.97,3.7,0.14,5.52c1.14,1.72,0.68,3.66,0.03,5.47
		c0.11,1.81,0.42,3.73-1.16,5.03c0.25,1.97-0.24,3.88-1.67,5.3c-0.29,1.86-0.5,3.9-2.48,4.75c0.05,2.11-1.2,3.8-3.11,4.59
		c-0.15,3.35-4.41,3.88-5.11,7.14c-0.56,0.04-1.69,0.13-2.26,0.18c-0.57,2.03-2.12,3.35-4.27,3.25c-1.18,1.71-2.89,2.73-5,2.63
		c-1.2,1.59-3.03,2.19-4.94,1.7c-1.99,2.52-5.06,0.63-7.48,2.15c-2.88-0.94-5.79,1.18-8.41-0.66c-1.82,0.62-3.89,0.73-5.15-0.99
		c-2.77,1.39-4.62-1.74-7.35-1.56c-1.3,0.09-1.84-1.32-2.66-2.04c-2.14,0.17-3.67-1.21-4.89-2.77c-1.87-0.42-3.4-1.49-3.91-3.41
		c-1.9-0.44-3.4-1.7-3.57-3.7c-1.86-0.89-3.36-2.27-3.33-4.48c-1.1299-0.69-2.0099-1.65-2.83-2.64c0.13-0.41,0.38-1.23,0.51-1.64
		c-2.95-1.56-1.8701-5.04-3.6-7.42c-0.66-1.33,0.19-2.93-0.76-4.17c-1.18-2.09,0.29-4.52-0.88-6.68c1.44-2.67-0.84-5.87,1.66-8.07
		c-0.84-1.88-0.22-3.76,1.21-5.14c-0.81-2.75,1.88-4.2,2.25-6.67c0.09-1.51,1.47-2.21,2.48-3.11c-0.14-3.02,3.18-3.66,4.02-6.17
		c0.27-1.38,1.89-1.28,2.89-1.85c0.37-2.06,2.21-2.92,3.99-3.52c1.14-1.71,2.86-2.59,4.89-2.78c0.9-1.96,2.97-1.92,4.81-2.26
		c1.35-1.2,3.06-1.9,4.88-1.31C817.74,37.97,819.59,37.11,821.42,38.25 M820.46,44.64c-9.6,1.34-18.48,6.92-23.96,14.89
		c-5.7,8.19-7.93,18.89-5.36,28.59c2.4,10.46,9.92,19.54,19.65,24c8.46,3.97,18.55,4.31,27.3,1.08
		c13.24-4.77,23.02-18.04,23.12-32.19c0.67-11.78-5.34-23.5-14.94-30.24C838.89,45.48,829.43,43.27,820.46,44.64z"/>
	<path fill="#FEFFFE" stroke="#FEFFFE" stroke-width="0.3" d="M626.09,39.14c1.91-0.53,3.91-0.64,5.9-0.61
		c26.3,0.06,52.6-0.03,78.9,0.04c6.68-0.14,12.56,5.91,12.33,12.56C723.28,69.08,723.3,87.04,723.21,105
		c0.09,6.48-5.69,12.36-12.19,12.27c-27,0.04-54,0.03-81,0.01c-5.18,0.15-10.11-3.41-11.78-8.27c-0.97-2.91-0.66-6.02-0.69-9.03
		c0.01-16.32-0.01-32.64,0.01-48.96C617.37,45.71,621.09,40.75,626.09,39.14 M640.13,48.22c-5.31,0.42-9.52,5.47-9.2,10.74
		c0.01,12.69-0.01,25.38,0.01,38.08c-0.33,5.57,4.55,10.62,10.1,10.62c19.32,0.05,38.65,0,57.97,0.02
		c5.81,0.4,11.14-4.85,10.79-10.67c-0.03-13.02,0.07-26.05-0.05-39.07c-0.05-5.55-5.32-10.12-10.78-9.8
		C679.36,48.19,659.74,48.02,640.13,48.22z"/>
	<path fill="#FBEBDA" stroke="#FBEBDA" stroke-width="0.3" d="M349.27,43.27c35.64-0.02,71.27,0.07,106.91-0.05
		c0.03,3.93,0.02,7.85,0.04,11.78c-35.65-0.08-71.3,0.03-106.94-0.07C349.29,51.04,349.27,47.15,349.27,43.27z"/>
	<path fill="#12110D" stroke="#12110D" stroke-width="0.3" d="M528.56,44.75c7.58-1.28,15.58-0.12,22.42,3.45
		c11.34,5.78,19.16,18.05,19.18,30.83c0.39,9.78-3.7599,19.5-10.72,26.32c-10.15,10.06-26.58,12.97-39.52,6.86
		c-11.13-4.95-19.24-15.99-20.61-28.1C496.62,65.96,510.41,47.45,528.56,44.75 M527.5,46.63c-9.62,2.03-18.12,8.49-22.75,17.14
		c-5.2,9.46-5.38,21.41-0.55,31.05c6.37,13.39,22.27,21.42,36.81,18.29c12.05-2.12,22.43-11.45,25.99-23.14
		c3.1-9.42,1.56-20.1-3.76-28.42C555.9,49.81,541.02,43.56,527.5,46.63z"/>
	<path fill="#12110D" stroke="#12110D" stroke-width="0.3" d="M820.46,44.64c8.97-1.37,18.43,0.84,25.81,6.13
		c9.6,6.74,15.61,18.46,14.94,30.24c-0.1,14.15-9.88,27.42-23.12,32.19c-8.75,3.23-18.84,2.89-27.3-1.08
		c-9.73-4.46-17.25-13.54-19.65-24c-2.57-9.7-0.34-20.4,5.36-28.59C801.98,51.56,810.86,45.98,820.46,44.64 M818.52,46.65
		c-9.82,2.1-18.52,8.82-23.03,17.79c-5.16,9.97-4.87,22.56,0.82,32.26c6.83,12.23,21.86,19.36,35.62,16.42
		c10.33-1.74,19.48-8.79,24.14-18.12c4.95-9.73,4.77-21.83-0.54-31.38C848.69,50.61,832.86,43.32,818.52,46.65z"/>
	<path fill="#FDFDFD" stroke="#FDFDFD" stroke-width="0.3" d="M527.5,46.63c13.52-3.07,28.4,3.18,35.74,14.92
		c5.32,8.32,6.86,19,3.76,28.42c-3.56,11.69-13.94,21.02-25.99,23.14c-14.54,3.13-30.44-4.9-36.81-18.29
		c-4.83-9.64-4.65-21.59,0.55-31.05C509.38,55.12,517.88,48.66,527.5,46.63 M527.51,51.67c-13.03,3.07-22.72,16.05-21.87,29.42
		c0.32,13.29,10.98,25.36,24.12,27.31c10.35,1.93,21.49-2.48,27.84-10.85c6.36-8.06,7.87-19.58,3.8-29
		C556.2,55.62,540.99,47.98,527.51,51.67z"/>
	<path fill="#FDFEFD" stroke="#FDFEFD" stroke-width="0.3" d="M818.52,46.65c14.34-3.33,30.17,3.96,37.01,16.97
		c5.31,9.55,5.49,21.65,0.54,31.38c-4.66,9.33-13.81,16.38-24.14,18.12c-13.76,2.94-28.79-4.19-35.62-16.42
		c-5.69-9.7-5.98-22.29-0.82-32.26C800,55.47,808.7,48.75,818.52,46.65 M818.51,51.64c-7,1.83-13.3,6.29-17.18,12.41
		c-5.47,8.27-6.18,19.44-1.79,28.33c5.6,12.27,20.47,19.21,33.47,15.56c14.89-3.48,25.05-20.12,20.93-34.93
		C850.71,57.65,833.6,47.43,818.51,51.64z"/>
	<path fill="#12110D" stroke="#12110D" stroke-width="0.3" d="M640.13,48.22c19.61-0.2,39.23-0.03,58.84-0.08
		c5.46-0.32,10.73,4.25,10.78,9.8c0.12,13.02,0.02,26.05,0.05,39.07c0.35,5.82-4.98,11.07-10.79,10.67
		c-19.32-0.02-38.65,0.03-57.97-0.02c-5.55,0-10.43-5.05-10.1-10.62c-0.02-12.7,0-25.39-0.01-38.08
		C630.61,53.69,634.82,48.64,640.13,48.22z"/>
	<path fill="#020202" stroke="#020202" stroke-width="0.3" d="M527.51,51.67c13.48-3.69,28.69,3.95,33.89,16.88
		c4.0699,9.42,2.56,20.94-3.8,29c-6.35,8.37-17.49,12.78-27.84,10.85c-13.14-1.95-23.8-14.02-24.12-27.31
		C504.79,67.72,514.48,54.74,527.51,51.67 M528.07,53.2c-12.7,2.85-22.07,15.77-20.78,28.74c0.75,13.25,12.42,24.79,25.71,25.22
		c10.16,0.82,20.29-4.78,25.34-13.56c4.72-7.93,4.95-18.3,0.62-26.44C553.44,56.14,540,50.02,528.07,53.2z"/>
	<path fill="#12110D" stroke="#12110D" stroke-width="0.3" d="M818.51,51.64c15.09-4.21,32.2,6.01,35.43,21.37
		c4.12,14.81-6.04,31.45-20.93,34.93c-13,3.65-27.87-3.29-33.47-15.56c-4.39-8.89-3.68-20.06,1.79-28.33
		C805.21,57.93,811.51,53.47,818.51,51.64 M819.07,53.25c-12.95,2.94-22.32,16.4-20.59,29.57c0.79,6.93,4.25,13.54,9.66,17.99
		c7.75,6.69,19.44,8.26,28.75,4.02c12.55-5.29,19.5-20.81,14.82-33.66C847.61,57.92,832.47,49.54,819.07,53.25z"/>
	<path fill="#FFFFFF" stroke="#FFFFFF" stroke-width="0.3" d="M528.07,53.2c11.93-3.18,25.37,2.94,30.89,13.96
		c4.33,8.14,4.1,18.51-0.62,26.44c-5.05,8.78-15.1801,14.38-25.34,13.56c-13.29-0.43-24.96-11.97-25.71-25.22
		C506,68.97,515.37,56.05,528.07,53.2z"/>
	<path fill="#FFFFFF" stroke="#FFFFFF" stroke-width="0.3" d="M819.07,53.25c13.4-3.71,28.54,4.67,32.64,17.92
		c4.68,12.85-2.27,28.37-14.82,33.66c-9.31,4.24-21,2.67-28.75-4.02c-5.41-4.45-8.87-11.06-9.66-17.99
		C796.75,69.65,806.12,56.19,819.07,53.25z"/>
	<path fill="#FAEBD8" stroke="#FAEBD8" stroke-width="0.3" d="M335.27,61.12c1.12-1.99,2.98-3.3,4.98-4.3
		c0.34,0.35,1.02,1.05,1.36,1.4c34.46-0.66,68.96-0.12,103.44-0.29c6.86-0.12,13.79,0.76,20.57-0.7c2.13,0.32,3.45,2.42,4.73,3.98
		c-2.05,0.55-4.14,1.03-6.27,0.94c-35.03-0.16-70.07-0.07-105.1-0.02C351.08,61.64,343.04,63.04,335.27,61.12z"/>
	<path fill="#FFFAEE" stroke="#FFFAEE" stroke-width="0.3" d="M340.25,56.82c1.59-0.17,3.19-0.26,4.8-0.29
		c38.65,0,77.31,0.02,115.96-0.02c1.57-0.02,3.1,0.22,4.61,0.72c-6.78,1.46-13.71,0.58-20.57,0.7
		c-34.48,0.17-68.98-0.37-103.44,0.29C341.27,57.87,340.59,57.17,340.25,56.82z"/>
	<path fill="#F4EBD9" stroke="#F4EBD9" stroke-width="0.3" d="M248.11,64.62c0.44-3.95,3.75-7.46,7.9-7.16c11-0.03,22-0.07,33,0.01
		c4.01-0.15,7.12,3.36,7.52,7.16C280.39,64.6,264.25,64.61,248.11,64.62z"/>
	<path fill="#FFFCF1" stroke="#FFFCF1" stroke-width="0.3" d="M335.27,61.12c7.77,1.92,15.81,0.52,23.71,1.01
		c35.03-0.05,70.07-0.14,105.1,0.02c2.13,0.09,4.22-0.39,6.27-0.94c0.19,0.53,0.57,1.61,0.76,2.15
		c-45.53,0.02-91.06-0.03-136.59,0.02C334.71,62.81,335.08,61.69,335.27,61.12z"/>
	<path fill="#FAE9D8" stroke="#FAE9D8" stroke-width="0.3" d="M227.6,75.92c-0.95-4.9,3.37-9.85,8.32-9.78
		c23.37-0.05,46.76-0.05,70.13-0.02c2.36-0.07,4.82,0.63,6.5,2.36c3.68,3.21,3.35,9.74-0.49,12.7c-2.99,2.48-7.16,1.87-10.74,1.68
		c-6.72-1.19-13.54-0.55-20.31-0.76c-16.46-0.26-32.95,0.8-49.36-0.41h-0.55C229.55,80.03,227.84,78.31,227.6,75.92z"/>
	<path fill="#FFFFFF" stroke="#FFFFFF" stroke-width="0.3" d="M231.65,81.69c16.41,1.21,32.9,0.15,49.36,0.41
		c6.77,0.21,13.59-0.43,20.31,0.76c-20.09,0.29-40.18,0.03-60.27,0.13C237.92,82.83,234.42,83.52,231.65,81.69z"/>
	<path fill="#FBEAD9" stroke="#FBEAD9" stroke-width="0.3" d="M236.33,84.76c23.84-0.25,47.7,0.07,71.54-0.16
		c-0.6,0.98-1.15,1.98-1.65,3c-2.33,8.33-0.74,17.21-1.67,25.75c-0.45-3.09-0.36-6.21-0.63-9.3c-0.11-1.42-1.12-2.64-2.62-2.58
		l-0.14-0.04c-2.07-2.81-4.63-5.51-8.13-6.4c-6.49-2.26-14.21,1.65-16.58,8.01c-1.49,3.83-1,8.02-1.02,12.03
		c-13.04-0.09-26.08,0.18-39.11-0.14C236.5,104.87,236.46,94.82,236.33,84.76z"/>
	<path fill="#FDFAEE" stroke="#FDFAEE" stroke-width="0.3" d="M304.55,113.35c0.93-8.54-0.66-17.42,1.67-25.75
		c0.23,9.16,0.03,18.32,0.12,27.48c-0.92,0-2.76,0-3.68,0.01c-0.05-4.57,0.5-9.3-1.36-13.62c1.5-0.06,2.51,1.16,2.62,2.58
		C304.19,107.14,304.1,110.26,304.55,113.35z"/>
	<path fill="#F9E8D8" stroke="#F9E8D8" stroke-width="0.3" d="M890.37,92.51c31.5-0.57,63.07-0.06,94.6-0.26
		c2.84-0.38,6.17,0.8,7.02,3.8c0.49,4.32,0.11,8.67,0.23,13c0.09,2.22-0.22,6.05-3.1899,6.01c-33.02,0-66.05,0.03-99.07,0
		c-2.4,0.53-3.46-2.25-3.46-4.17c-0.05-4.6-0.1-9.2,0.02-13.79C886.5,94.93,888.31,92.98,890.37,92.51z"/>
	<path fill="#FBEAD9" stroke="#FBEAD9" stroke-width="0.3" d="M279.67,100.62c4.25-5.74,13.65-6.1,18.27-0.63
		c4.02,4,2.93,9.99,3.06,15.1c-7.98-0.05-15.96,0-23.94-0.02C277.22,110.21,276.18,104.62,279.67,100.62z"/>
	<path fill="#FAE9D9" stroke="#FAE9D9" stroke-width="0.3" d="M43.75,114.68c7.17-6.17,14.78-11.82,22.21-17.67
		c46.95,0.11,93.91-0.02,140.87,0.06c7.29,5.98,14.88,11.58,22.14,17.6C167.23,114.87,105.49,114.86,43.75,114.68z"/>
	<path fill="#FFFFFF" stroke="#FFFFFF" stroke-width="0.3" d="M40.36,117.23c1.86-0.35,3.75-0.57,5.65-0.54
		c86.83,0.12,173.65-0.11,260.47,0.2c-1.76,0.66-3.63,0.96-5.5,0.91c-6.98-0.07-13.96-0.26-20.93,0.15
		c-73.98-0.56-147.99,0-221.98-0.27C52.16,117.53,46.2,118.44,40.36,117.23z"/>
	<path fill="#FFFCF1" stroke="#FFFCF1" stroke-width="0.3" d="M880.76,116.79c36.5-0.1,73,0.16,109.5-0.12
		c-0.11,0.44-0.34,1.33-0.46,1.77c-7.23-0.74-14.51-0.29-21.77-0.51C940.35,118.04,912.66,118.12,884.97,118
		C883.46,118,881.99,117.65,880.76,116.79z"/>
	<path fill="#FFFFFF" stroke="#FFFFFF" stroke-width="0.3" d="M990.51,116.81c7.17-0.15,14.35-0.01,21.54-0.07
		c2.69-0.06,5.4,0.24,7.99,1.05c-8.97,0-18-0.61-26.92,0.52C992.23,117.81,991.36,117.31,990.51,116.81z"/>
	<path fill="#020202" stroke="#020202" stroke-width="0.3" d="M356.34,121.38c3.82-3.49,10.48-2.35,13.13,2.04
		c2.77,4.52,0.02,10.08,1.95,14.84c0.3-3.31,0.27-6.64,0.46-9.96c20.4,2.91,38.66,16.16,48.28,34.31
		c5.68-0.08,11.36-0.01,17.03-0.05c-0.12,31.98,0.05,63.95-0.11,95.93c-0.93-1.34-1.09-2.98-1.09-4.55c0.02-29.97,0.13-59.94,0-89.9
		c-5.66-0.37-11.33,0.04-17,0.02c-8.81-17.75-26.38-30.57-45.86-34c0.03,2.6,0.05,5.2,0.11,7.79c15.25,2.93,29,12.59,36.97,25.91
		c8.19,13.37,10.23,30.27,5.59,45.23c-4.45,14.86-15.48,27.56-29.51,34.15c-11.18,5.35-24.14,6.65-36.22,3.99
		c-13.95-3.08-26.47-11.84-34.32-23.76c-8.45-12.61-11.16-28.71-7.76-43.46c4.67-20.98,22.52-38.2,43.66-42.08
		c0.01-2.6,0.01-5.19,0.01-7.79c-19.84,3.49-37.68,16.76-46.36,34.99c-1.07-0.57-2.19-0.94-3.36-1.12
		c-90.96,0.11-181.93-0.07-272.89,0.03c-1.51-0.2-3.68,0.43-4.47-1.38c93.35,0.04,186.7-0.02,280.06,0.05
		c9.61-18.06,27.85-31.52,48.26-34.18C353.48,125.87,354.16,123.09,356.34,121.38 M355.07,126.08c-0.59,3.68-0.19,7.44-0.32,11.15
		c4.78-0.52,9.6-0.53,14.39-0.08c-0.63-4.67,1.54-10.41-2.09-14.2C363.49,119.11,356.32,121.02,355.07,126.08 M353.04,139.19
		c-12.49,2.15-24.12,8.85-32.22,18.61c-10.2,12.01-14.78,28.7-11.85,44.21c2.4,14.47,11.12,27.71,23.34,35.79
		c12.63,8.51,28.96,11.3,43.68,7.36c12.7-3.19,24.03-11.29,31.36-22.13c7.69-11.29,10.86-25.58,8.59-39.05
		c-2.46-16.47-13.22-31.36-27.9-39.14C377.45,139.06,364.91,137.1,353.04,139.19z"/>
	<path fill="#FFFFFF" stroke="#FFFFFF" stroke-width="0.3" d="M624.92,119.64c0.34-0.24,1.02-0.74,1.37-0.98
		c1.57,0.16,3.15,0.31,4.7401,0.35c26,0.03,51.99-0.04,77.98,0.03c2.05-0.01,4.1-0.21,6.15-0.51l-1.18,0.85
		c-3.4,0.63-6.86,0.46-10.29,0.58c-15.21-0.71-30.45,0-45.67,0.02C646.99,119.61,635.94,120.19,624.92,119.64z"/>
	<path fill="#FEFEFE" stroke="#FEFEFE" stroke-width="0.3" d="M355.07,126.08c1.25-5.06,8.42-6.97,11.98-3.13
		c3.63,3.79,1.46,9.53,2.09,14.2c-4.79-0.45-9.61-0.44-14.39,0.08C354.88,133.52,354.48,129.76,355.07,126.08z"/>
	<path fill="#060100" stroke="#060100" stroke-width="0.3" d="M633.08,133.86c2.19-0.34,3.11-3.19,5.03-4.26
		c5.7,0.04,11.37,0.79,17.02,1.51c1.09,1.77,2.17,3.54,3.27,5.3c1.99-1.06,3.77-2.47,5.43-4c5.58,1.25,11.35,1.93,16.71,4
		c1.22,1.82,2.07,3.86,3.16,5.78c1.78-1.18,3.56-2.37,5.33-3.58c5.52,1.77,10.97,3.75,16.35,5.91c0.82,1.97,0.68,4.74,2.62,6
		c1.83-0.63,3.55-1.55,5.28-2.42c4.02,1.72,7.9,3.76,11.81,5.73c1.2,0.74,2.47,1.41,3.5,2.41c0.54,1.89,0.7599,3.87,1.3799,5.74
		c2.11,0.39,4.08-0.95,6.14-1.26c5.2,2.51,9.65,6.35,14.4,9.61c0.07,2.15,0.16,4.29,0.28,6.44c2.19-0.17,4.36-0.54,6.54-0.97
		c4.32,3.63,8.76,7.2,12.59,11.36c0.26,2.24,0.07,4.51,0.14,6.76c2.01-0.02,4.04-0.16,6.07-0.08c1.45,0.72,2.43,2.11,3.52,3.27
		c1.06,0.79,1.6,3.06,3.21,2.66c0.64-1.49,0.45-3.14,0.53-4.71c-0.15-10.55,0.1-21.11-0.14-31.65c0.09-0.23,0.27-0.68,0.36-0.91
		c83.76,0.28,167.53-0.19,251.29,0.23l0.91,0.05c0.0199,0.75,0.0399,2.24,0.0599,2.98c-1.05-1.13-2.23-2.19-3.89-1.87
		c-82.34,0.18-164.68-0.09-247.02,0.14c-0.13,12.29,0.08,24.57-0.04,36.85c-1.28,0.11-2.55,0.22-3.81,0.33
		c-1.75-2.03-3.55-4.01-5.37-5.96c-2.48-0.05-6.02,1.3-7.34-1.63c-0.3-1.89,0.1-3.81,0.22-5.7c-3.74-3.6-7.65-7.02-11.55-10.44
		c-1.85,0.36-3.67,0.96-5.55,0.92c-3.25-0.92-2.3-4.77-2.62-7.3c-4.1801-3.12-8.5-6.06-12.86-8.91c-2.37,0.62-5.49,2.96-7.45,0.37
		c-0.84-1.72-0.8701-3.71-1.25-5.56c-4.59-2.57-9.2401-5.05-14.06-7.15c-2.2,1.02-5.04,3.4-7.3101,1.24
		c-0.99-1.73-1.1899-3.81-2.28-5.47c-4.66-2.06-9.53-3.6-14.35-5.24c-2.1,1.11-4.4301,4.03-6.97,2.4c-1.45-1.44-1.99-3.51-2.88-5.3
		c-5.07-1.23-10.14-2.45-15.27-3.37c-1.98,1.42-3.96,4.75-6.75,3.1c-1.55-1.22-2.29-3.17-3.39-4.75
		c-5.22-0.54-10.44-1.14-15.69-1.25c-1.29,1.39-2.32,3.16-4.05,4.05c-2.86,0.65-4.28-2.39-5.73-4.23
		c-5.25-0.24-10.49,0.05-15.73,0.29c-1.71,1.79-2.77,5.45-5.83,4.85c-1.86-0.78-3.08-2.5-4.53-3.82
		c-5.14,0.78-10.29,1.54-15.39,2.58c-1.28,2.1-2.04,5.7-5.15,5.5c-1.87-0.68-3.33-2.14-4.93-3.25c-4.98,1.47-9.98,2.85-14.89,4.52
		c-0.99,2.3-1.28,5.77-4.34,6.18c-1.85-0.51-3.44-1.64-5.08-2.6c-4.82,1.89-9.66,3.82-14.19,6.34c-1.21,2.14-0.59,5.89-3.6,6.55
		c-2.05,0.04-3.85-1.13-5.72-1.81c-4.37,2.6-8.85,5.04-12.99,8.01c-0.77,2.01-0.31,4.48-1.57,6.27c-2.07,2.17-5.01-0.24-7.46,0.14
		c-4.24,2.9-8.23,6.19-11.99,9.7c-0.15,1.96,0.95,4.47-0.54,6.11c-1.78,2.06-4.59,0.6-6.84,0.49c-3.8,3.57-7.37,7.37-10.92,11.18
		c0.1,2.54,1.84,5.92-0.91,7.62c-1.91,0.39-3.87,0.2-5.8,0.25c-3.02,4.07-6.33,7.94-9.01,12.25c-0.38,2.56,2.45,5.58-0.03,7.73
		c-1.75,1.04-3.92,0.84-5.86,1.19c-2.67,4.47-5.3,8.97-7.62,13.63c0.81,2.39,3.17,5.17,0.96,7.49c-1.74,0.76-3.6,1.2-5.39,1.83
		l-0.64,1.19c-0.15-0.6-0.44-1.79-0.59-2.39c2.03-0.91,4.21-1.4,6.33-2.07c-0.73-2.06-1.56-4.08-2.41-6.09
		c2.55-5.19,5.47-10.2,8.51-15.13c2.07-0.23,4.13-0.47,6.21-0.7c-0.19-2.23-0.76-4.4-1.51-6.49c3.23-4.88,6.73-9.57,10.46-14.07
		c2.19,0.01,4.39-0.01,6.58-0.2c-0.33-2.11-0.67-4.21-1.07-6.3c3.81-4.32,7.87-8.42,11.94-12.52c2.15,0.23,4.3,0.47,6.46,0.7
		c0.27-2.19,0.25-4.41,0.14-6.61c4.29-3.83,8.86-7.35,13.44-10.83c1.92,0.47,3.83,1.06,5.8,1.3c2.27-1.66,0-5.83,2.7401-7.23
		c4.36-2.95,8.96-5.54,13.5099-8.21c1.83,0.78,3.65,1.66,5.59,2.21c1.58-1.7,1.57-4.22,2.28-6.33c5.15-2.51,10.36-4.89,15.7-6.97
		c1.68,0.97,3.34,2.01,5.15,2.74c2.38-1.17,1.62-5.09,4.16-6.12c5.02-1.9,10.2401-3.25,15.44-4.6c1.71,1.27,3.37,2.67,5.33,3.56
		c1.35-1.73,2.09-3.87,3.54-5.52c4.82-1.3,9.81-1.88,14.75-2.59c3.03-0.76,4.69,2.79,6.96,4.1c1.31-1.72,2.58-3.46,3.83-5.22
		c5.69-0.47,11.41-0.56,17.12-0.69C630.31,130.77,631.49,132.51,633.08,133.86z"/>
	<path fill="#FDFEFD" stroke="#FDFEFD" stroke-width="0.3" d="M305.3,165.03c8.68-18.23,26.52-31.5,46.36-34.99
		c0,2.6,0,5.19-0.01,7.79c-21.14,3.88-38.99,21.1-43.66,42.08c-3.4,14.75-0.69,30.85,7.76,43.46c7.85,11.92,20.37,20.68,34.32,23.76
		c12.08,2.66,25.04,1.36,36.22-3.99c14.03-6.59,25.06-19.29,29.51-34.15c4.64-14.96,2.6-31.86-5.59-45.23
		c-7.97-13.32-21.72-22.98-36.97-25.91c-0.06-2.59-0.08-5.19-0.11-7.79c19.48,3.43,37.05,16.25,45.86,34
		c7.44,14.61,8.85,32.16,3.83,47.76c-3.76,11.85-11.09,22.54-20.81,30.28c-13.55,10.94-31.74,15.95-48.96,13.24
		c-16.19-2.31-31.23-11.31-41.09-24.33C297.56,212.57,294.93,185.98,305.3,165.03z"/>
	<path fill="#FFFFFF" stroke="#FFFFFF" stroke-width="0.3" d="M353.04,139.19c11.87-2.09,24.41-0.13,35,5.65
		c14.68,7.78,25.44,22.67,27.9,39.14c2.27,13.47-0.9,27.76-8.59,39.05c-7.33,10.84-18.66,18.94-31.36,22.13
		c-14.72,3.94-31.05,1.15-43.68-7.36c-12.22-8.08-20.94-21.32-23.34-35.79c-2.93-15.51,1.65-32.2,11.85-44.21
		C328.92,148.04,340.55,141.34,353.04,139.19 M353.42,159.59c-8.65,2.33-16.31,8.2-20.71,16.02c-5.38,9.11-6.01,20.77-1.82,30.46
		c4.35,10.3,14.04,18.24,25.09,20.16c6.96,1.57,14.36,0.38,20.82-2.52c10.54-4.81,18.28-15.31,19.56-26.85
		c1.72-12.2-4.01-25.02-14.08-32.07C374.1,158.77,363.18,157.01,353.42,159.59z"/>
	<path fill="#010101" stroke="#010101" stroke-width="0.3" d="M610.56,144.9c40.1-3.8,81.38,5.73,115.69,26.88
		c32.39,19.7,58.56,49.41,74.03,84.03c18.59,41.14,21.5099,89.01,8.36,132.18c-10.85,36.06-32.94,68.58-62.27,92.18
		c-28.61,23.22-64.19,37.74-100.9,41.02c-41.1299,4.01-83.49-6.02-118.4-28.17c-33.17-20.84-59.59-52.24-74.34-88.55
		c-17.2-41.79-18.55-89.81-3.85-132.53c12.6-37.11,37.17-69.99,69.1-92.7C545.04,159.8,577.37,147.78,610.56,144.9 M614.04,146.16
		c-33.43,2.39-66.12,13.98-93.55,33.24c-30.22,21.06-54.02,51.21-67.37,85.56c-17.04,43.39-17.04,93.17,0.13,136.52
		c13.12,33.74,36.44,63.34,65.91,84.31c31.4901,22.51,70.13,34.94,108.86,34.59c42.96,0.29,85.72-15.23,118.79-42.6
		c27.8-22.84,48.87-53.82,59.66-88.16c13.11-41.26,11.34-87.08-5.08-127.15c-14-34.55-38.63-64.67-69.67-85.31
		C697.41,154.05,655.26,143.08,614.04,146.16z"/>
	<path fill="#FFFFFF" stroke="#FFFFFF" stroke-width="0.3" d="M614.04,146.16c41.22-3.08,83.37,7.89,117.68,31
		c31.04,20.64,55.67,50.76,69.67,85.31c16.42,40.07,18.19,85.89,5.08,127.15c-10.79,34.34-31.86,65.32-59.66,88.16
		c-33.07,27.37-75.83,42.89-118.79,42.6c-38.73,0.35-77.37-12.08-108.86-34.59c-29.47-20.97-52.79-50.57-65.91-84.31
		c-17.17-43.35-17.17-93.13-0.13-136.52c13.35-34.35,37.15-64.5,67.37-85.56C547.92,160.14,580.61,148.55,614.04,146.16
		 M612.57,173.82c-28.11,2.59-55.46,12.88-78.31,29.45c-31.67,22.7-54.59,57.32-62.78,95.44c-8.59,38.75-2.18,80.66,18.02,114.86
		c18.13,31.25,47.16,56.02,80.94,68.88c37.83,14.65,81.27,14.07,118.68-1.63c31.93-13.16,59.23-37.08,76.68-66.86
		c18.51-31.29,25.69-69.05,20.12-104.96c-6.14-42.2-30.3-81.29-65.02-105.98C689.91,180.58,650.63,170.06,612.57,173.82z"/>
	<path fill="#12110D" stroke="#12110D" stroke-width="0.3" d="M353.42,159.59c9.76-2.58,20.68-0.82,28.86,5.2
		c10.07,7.05,15.8,19.87,14.08,32.07c-1.28,11.54-9.02,22.04-19.56,26.85c-6.46,2.9-13.86,4.09-20.82,2.52
		c-11.05-1.92-20.74-9.86-25.09-20.16c-4.19-9.69-3.56-21.35,1.82-30.46C337.11,167.79,344.77,161.92,353.42,159.59 M356.49,160.58
		c-9.73,1.78-18.47,8.2-22.99,17.01c-5.1,9.61-4.83,21.83,0.63,31.24c7.47,13.59,25.36,20.15,39.79,14.25
		c15.41-5.4,24.7-23.59,19.84-39.23C389.7,168.05,372.48,157.24,356.49,160.58z"/>
	<path fill="#FFFFFF" stroke="#FFFFFF" stroke-width="0.3" d="M356.49,160.58c15.99-3.34,33.21,7.47,37.27,23.27
		c4.86,15.64-4.43,33.83-19.84,39.23c-14.43,5.9-32.32-0.66-39.79-14.25c-5.46-9.41-5.73-21.63-0.63-31.24
		C338.02,168.78,346.76,162.36,356.49,160.58z"/>
	<path fill="#FAE9D8" stroke="#FAE9D8" stroke-width="0.3" d="M1034.98,138.01c0.15-9.01-6.22-17.81-14.9399-20.22
		c-8.97,0-18-0.61-26.92,0.52c-0.89-0.5-1.76-1-2.61-1.5l-0.25-0.14c-0.11,0.44-0.3401,1.33-0.46,1.77
		c-7.23-0.74-14.51-0.29-21.77-0.51c-27.6801,0.11-55.3701,0.19-83.0601,0.07c-1.51,0-2.98-0.35-4.21-1.21
		c-0.21-0.12-0.63-0.36-0.8401-0.49c0.27-28.52,0.02-57.04,0.1201-85.56c-131.74,0.03-263.48-0.05-395.22,0.03
		C481.66,42.2,478.46,53.61,475.24,65.02c-51.53-0.06-103.05,0.03-154.58-0.05c-1.36,2.97-4.3,5.55-3.88,9.06
		c0.4399,4.53-2.73,8.59-6.8301,10.1801c-0.7799,1.52-2.0699,2.96-1.95,4.78c0.02,9.11-0.04,18.23,0.03,27.35
		c-0.39,0.14-1.16,0.41-1.55,0.55c-1.76,0.66-3.6299,0.96-5.5,0.91c-6.98-0.07-13.96-0.26-20.9299,0.15
		c-73.98-0.56-147.9901,0-221.98-0.27c-5.91-0.15-11.87,0.76-17.71-0.45c-9.56,1.1-17.34,10.24-17.53,19.79
		c-0.08,8.5,0.07,17-0.07,25.5c0.45,0.0099,1.37,0.03,1.82,0.04c93.35,0.04,186.7-0.02,280.06,0.05
		c9.61-18.06,27.85-31.52,48.26-34.18c0.58-2.56,1.26-5.34,3.4401-7.05c3.8199-3.49,10.48-2.35,13.1299,2.04
		c2.77,4.52,0.02,10.08,1.9501,14.84c0.2999-3.31,0.2699-6.64,0.46-9.96c20.4,2.91,38.66,16.16,48.28,34.31
		c5.6801-0.08,11.36-0.01,17.0299-0.05c-0.1199,31.98,0.05,63.95-0.1099,95.93c0.0299,0.43,0.09,1.28,0.1199,1.71
		c1.8301-3.6201,2.8501-7.61,4.8301-11.15c2.03-0.91,4.21-1.4,6.33-2.07c-0.73-2.06-1.5599-4.08-2.41-6.09
		c2.55-5.19,5.4701-10.2,8.51-15.13c2.0701-0.23,4.1301-0.47,6.2101-0.7c-0.1901-2.23-0.76-4.4-1.51-6.49
		c3.23-4.88,6.73-9.57,10.46-14.07c2.1901,0.01,4.39-0.01,6.58-0.2c-0.33-2.11-0.6699-4.21-1.0699-6.3
		c3.8099-4.32,7.87-8.42,11.9401-12.52c2.1499,0.23,4.2999,0.47,6.46,0.7c0.27-2.19,0.25-4.41,0.14-6.61
		c4.2899-3.83,8.86-7.35,13.4399-10.83c1.92,0.47,3.83,1.06,5.7999,1.3c2.27-1.66,0-5.83,2.7401-7.23
		c4.36-2.95,8.96-5.54,13.5099-8.21c1.8301,0.78,3.6501,1.66,5.5901,2.21c1.5801-1.7,1.5701-4.22,2.28-6.33
		c5.1499-2.51,10.36-4.89,15.7-6.97c1.6799,0.97,3.3401,2.01,5.15,2.74c2.38-1.17,1.62-5.09,4.16-6.12
		c5.02-1.9,10.24-3.25,15.4399-4.6c1.71,1.27,3.37,2.67,5.3301,3.56c1.3499-1.73,2.09-3.87,3.5399-5.52
		c4.8199-1.3,9.8099-1.88,14.75-2.59c3.03-0.76,4.6901,2.79,6.9601,4.1c1.3099-1.72,2.58-3.46,3.83-5.22
		c5.6901-0.47,11.41-0.56,17.12-0.69c1.3,1.6,2.48,3.34,4.0701,4.69c2.1899-0.34,3.1099-3.19,5.0299-4.26
		c5.7001,0.04,11.37,0.79,17.02,1.51c1.09,1.77,2.17,3.54,3.27,5.3c1.99-1.06,3.7699-2.47,5.4301-4
		c5.5798,1.25,11.3499,1.93,16.71,4c1.22,1.82,2.0699,3.86,3.1599,5.78c1.78-1.18,3.5601-2.37,5.3301-3.58
		c5.52,1.77,10.97,3.75,16.35,5.91c0.8199,1.97,0.6801,4.74,2.62,6c1.8301-0.63,3.55-1.55,5.28-2.42
		c4.02,1.72,7.8999,3.76,11.8101,5.73c1.2,0.74,2.47,1.41,3.5,2.41c0.5399,1.89,0.7599,3.87,1.3799,5.74
		c2.1101,0.39,4.0801-0.95,6.14-1.26c5.2001,2.51,9.65,6.35,14.4,9.61c0.0701,2.15,0.1599,4.29,0.28,6.44
		c2.1899-0.17,4.36-0.54,6.54-0.97c4.3199,3.63,8.76,7.2,12.5898,11.36c0.26,2.24,0.0701,4.51,0.1401,6.76
		c2.01-0.02,4.0399-0.16,6.0699-0.08c1.4501,0.72,2.4301,2.11,3.52,3.27c1.0599,0.79,1.6,3.06,3.21,2.66
		c0.64-1.4901,0.4501-3.14,0.53-4.71c-0.15-10.55,0.1-21.11-0.14-31.65c0.0901-0.23,0.27-0.68,0.36-0.91
		c83.76,0.28,167.53-0.19,251.29,0.23C1035.04,154.49,1034.9399,146.25,1034.98,138.01z M572.98,101.4
		c-5.1599,9.72-14.4199,17.05-24.83,20.43c-12.84,4.14-27.6901,2.1-38.66-5.85c-14.13-9.47-21.6899-27.8-18.1-44.45
		C493.5,58.8,502,47.53,513.1699,41.25c8.5601-4.65,18.6602-6.71,28.3101-4.9299c11.26,1.6099,21.87,7.9399,28.46,17.24
		C580.49,66.88,581.64,86.85,572.98,101.4z M724.96,104.03c0.1301,5.4901-2.8699,10.8-7.7,13.44c-0.71,0.36-1.4199,0.7-2.1001,1.06
		l-1.1799,0.85c-3.3999,0.63-6.86,0.46-10.29,0.58c-15.21-0.71-30.45,0-45.6699,0.02c-11.03-0.37-22.0801,0.21-33.1001-0.34
		c0.3401-0.24,1.02-0.74,1.3701-0.98c-3.6201-1.41-7.0901-3.7-8.8-7.3c-2.0601-3.44-1.53-7.57-1.5801-11.38
		c0.03-16.32-0.0099-32.63,0-48.9399C615.6,43.46,622.46,36.63,630.03,36.9299c26.98-0.0399,53.97,0,80.95,0.02
		c7.52-0.2,13.98,6.6101,13.9399,14.02C725.0601,68.65,724.99,86.34,724.96,104.03z M863.86,101.93
		c-7.21,12.78-21.2699,21.39-35.9401,21.92c-9.6199,0.39-19.5999-2.12-27.3499-7.95c-10-6.7-16.9301-17.8701-18.48-29.83
		c-1.4202-10.19,0.6299-20.96,6.2599-29.6401c7.15-11.6399,20.0599-19.5,33.67-20.58c14.83-1.24,30.26,5.38,38.96,17.58
		C871.6599,67.01,872.6699,87.14,863.86,101.93z"/>
	<path fill="#030303" stroke="#030303" stroke-width="0.3" d="M612.57,173.82c38.06-3.76,77.34,6.76,108.33,29.2
		c34.72,24.69,58.88,63.78,65.02,105.98c5.57,35.91-1.61,73.67-20.12,104.96c-17.45,29.78-44.75,53.7-76.68,66.86
		c-37.41,15.7-80.85,16.28-118.68,1.63c-33.78-12.86-62.81-37.63-80.94-68.88c-20.2-34.2-26.61-76.11-18.02-114.86
		c8.19-38.12,31.11-72.74,62.78-95.44C557.11,186.7,584.46,176.41,612.57,173.82 M614.92,175.12c-27.31,2.2-54.01,11.59-76.58,27.13
		c-29.89,20.33-52.45,51.19-62.57,85.9c-11.67,39.02-7.48,82.52,11.63,118.51c16.58,31.81,44.36,57.58,77.29,71.79
		c40.37,17.73,88.18,17.35,128.29-0.95c32.11-14.46,59.12-39.94,75.33-71.22c19.78-37.48,23.29-83.05,9.84-123.2
		c-11.02-33.51-33.73-62.97-63.2-82.33C685.72,181.3,649.88,172.26,614.92,175.12z"/>
	<path fill="#FFFFFF" stroke="#FFFFFF" stroke-width="0.3" d="M614.92,175.12c34.96-2.86,70.8,6.18,100.03,25.63
		c29.47,19.36,52.18,48.82,63.2,82.33c13.45,40.15,9.94,85.72-9.84,123.2c-16.21,31.28-43.22,56.76-75.33,71.22
		c-40.11,18.3-87.92,18.68-128.29,0.95c-32.93-14.21-60.71-39.98-77.29-71.79c-19.11-35.99-23.3-79.49-11.63-118.51
		c10.12-34.71,32.68-65.57,62.57-85.9C560.91,186.71,587.61,177.32,614.92,175.12 M611.58,191.81
		c-32.07,3.49-62.7,18.48-85.21,41.57c-26.72,26.82-41.8,64.76-40.75,102.61c0.47,38.77,17.99,76.85,46.89,102.66
		c28.01,25.57,66.65,38.96,104.48,36.27c37.35-2.15,73.4-20.04,97.87-48.32c26.13-29.56,38.85-70.37,34.16-109.54
		c-3.87-36.89-23.24-71.72-52.19-94.84C687.69,198.53,648.86,187.38,611.58,191.81z"/>
	<path fill="#FEFEFE" stroke="#FEFEFE" stroke-width="0.3" d="M825.86,335.99c-0.22-1.98-0.24-4.02,0.04-5.99
		c1.12-1.49,3.21-2.29,3.88-4.05c0.02-4.95-0.39-9.9-0.98-14.81c-1.5-1.91-5.04-2.26-5.02-5.14c0.0699-2.35,2.4099-3.69,3.72-5.39
		c-1.01-5.03-1.85-10.1-3.14-15.07c-1.92-1.48-5.41-1.67-5.71-4.58c0.17-2.16,1.97-3.72,3.0599-5.47
		c-1.5599-4.84-2.99-9.74-4.97-14.43c-1.8301-1.6-5.5601-1.05-6.22-3.98c-0.3201-2.2599,1.8899-3.92,2.08-6.0599
		c-2.0299-4.6801-4.2-9.35-6.84-13.72c-2.26-0.91-5.9399-0.28-6.6001-3.3c-0.0299-2.04,1.03-3.86,1.6501-5.75
		c-2.8701-4.38-5.6401-8.83-8.72-13.08c-1.9102-0.22-4.02,0.23-5.76-0.64c-2.49-1.75-0.6901-4.99-0.3401-7.37
		c-1.62-2-3.21-4.02-4.88-5.95c-1.75-2.03-3.5499-4.01-5.37-5.96c-2.48-0.05-6.02,1.3-7.34-1.63c-0.3-1.89,0.1-3.81,0.22-5.7
		c-3.74-3.6-7.65-7.02-11.5499-10.44c-1.8501,0.36-3.67,0.96-5.55,0.92c-3.25-0.92-2.3-4.77-2.62-7.3
		c-4.1801-3.12-8.5-6.06-12.86-8.91c-2.3701,0.62-5.49,2.96-7.45,0.37c-0.8401-1.72-0.8701-3.71-1.25-5.56
		c-4.5901-2.57-9.2401-5.05-14.0601-7.15c-2.2,1.02-5.04,3.4-7.3101,1.24c-0.99-1.73-1.1899-3.81-2.28-5.47
		c-4.6599-2.06-9.53-3.6-14.3499-5.24c-2.1001,1.11-4.4302,4.03-6.9701,2.4c-1.4501-1.44-1.99-3.5099-2.88-5.3
		c-5.0701-1.23-10.14-2.45-15.27-3.37c-1.98,1.42-3.96,4.75-6.75,3.1c-1.55-1.22-2.29-3.17-3.3899-4.75
		c-5.2201-0.54-10.4401-1.14-15.6901-1.25c-1.29,1.39-2.3199,3.16-4.0499,4.05c-2.8601,0.65-4.28-2.39-5.7301-4.23
		c-5.25-0.24-10.49,0.05-15.73,0.29c-1.7101,1.79-2.77,5.45-5.83,4.85c-1.8601-0.78-3.0801-2.5-4.53-3.82
		c-5.14,0.78-10.29,1.54-15.39,2.58c-1.28,2.1-2.0399,5.7-5.15,5.5c-1.87-0.68-3.33-2.14-4.9299-3.25
		c-4.98,1.47-9.98,2.85-14.8901,4.52c-0.99,2.3-1.2799,5.77-4.3398,6.18c-1.8501-0.51-3.4401-1.64-5.0801-2.6
		c-4.8201,1.89-9.6599,3.82-14.1899,6.34c-1.21,2.14-0.5901,5.89-3.6001,6.55c-2.0499,0.04-3.85-1.13-5.72-1.81
		c-4.37,2.6-8.85,5.04-12.99,8.01c-0.77,2.01-0.3101,4.48-1.5701,6.27c-2.0699,2.17-5.0099-0.2401-7.46,0.14
		c-4.24,2.9-8.23,6.19-11.99,9.7c-0.1499,1.96,0.9501,4.47-0.54,6.11c-1.7799,2.06-4.5898,0.6-6.8398,0.4901
		c-3.8,3.5699-7.3701,7.37-10.92,11.18c0.1,2.54,1.84,5.92-0.91,7.62c-1.9099,0.39-3.87,0.2-5.8,0.25
		c-3.02,4.07-6.33,7.94-9.01,12.25c-0.3799,2.56,2.4501,5.58-0.0299,7.73c-1.75,1.04-3.92,0.84-5.86,1.19
		c-2.67,4.47-5.3,8.97-7.6201,13.63c0.8101,2.39,3.17,5.17,0.9601,7.49c-1.74,0.76-3.6,1.2-5.39,1.83l-0.64,1.19
		c-1.71,4.21-3.5599,8.37-5,12.69c0.08,2.43,3.2101,4.15,2.36,6.89c-1.2,2.08-3.8099,2.3701-5.8099,3.3
		c-1.55,5.04-2.84,10.15-4.01,15.29c1.21,1.66,3.3099,3.06,3.47,5.25c-0.24,2.78-3.41,3.35-5.37,4.61
		c-0.9299,5.15-1.4,10.36-1.97,15.56c1.59,1.81,4.6399,3.23,3.95,6.12c-0.6899,2.2401-3.87,2.4901-4.61,4.65
		c-0.34,5.03-0.17,10.08-0.02,15.12c1.54,1.29,3.7301,2.14,4.58,4.07c0.7201,2.85-2.2999,4.32-3.8899,6.09
		c0.6399,5.17,0.85,10.44,2.0699,15.52c2.0699,1.47,5.54,2.21,5.3,5.42c-0.89,1.6801-2.25,3.04-3.5,4.45
		c1.16,5.16,2.45,10.3,4.0199,15.37c1.77,0.79,3.8701,1.11,5.3101,2.48c1.66,2.57-0.78,4.91-2.13,6.93
		c1.63,5.01,3.7301,9.85,5.8099,14.69c1.8901,0.71,4.27,0.68,5.79,2.13c1.67,2.31-0.45,4.89-1.26,7.09
		c2.29,4.67,4.97,9.13,7.5701,13.63c2.2,0.54,5.3201-0.16,6.6499,2.17c1.2001,2.27-1.0699,4.47-0.7699,6.76
		c2.8099,4.24,6.01,8.22,9.1,12.26c2.1699,0.3,5.14-0.99,6.62,1.13c1.7001,1.87-0.01,4.54,0.03,6.74
		c3.62,3.77,7.08,7.71,10.99,11.21c2.1801-0.04,4.8099-1.46,6.66,0.31c1.6599,1.74,0.6,4.28,0.7,6.41
		c3.96,3.41,7.9299,6.84,12.24,9.81c2.4299-0.06,5.1699-2.37,7.1899-0.09c1.3901,1.7,0.8101,4.17,1.26,6.21
		c4.41,2.7,8.79,5.47,13.27,8.07c2.1101-0.68,4.3501-2.69,6.6001-1.47c2.3199,1.1,1.4199,4.3,2.6799,6.16
		c4.47,2.45,9.25,4.3,13.9,6.41c1.8199-0.88,3.48-2.22,5.5-2.62c3.08,0.39,3.2799,3.94,4.36,6.23c4.89,1.51,9.75,3.16,14.74,4.32
		c2.26-1.11,4.1899-4.08,7.03-2.76c1.4099,1.46,2.11,3.42,3.11,5.17c5.11,0.9301,10.24,1.84,15.4,2.51
		c1.8799-1.61,3.5699-4.68,6.51-3.67c1.6199,1.25,2.45,3.2,3.84,4.69c4.6901,0.35,9.4,0.34,14.11,0.43c2.9,0.24,3.23-4.09,5.89-4.35
		c2.74-0.52,3.9301,2.51,5.5199,4.13c5.2401-0.07,10.4202-0.95,15.6501-1.31c1.1799-1.61,1.83-3.77,3.58-4.88
		c2.74-1.23,4.65,1.71,6.5199,3.21c5.1702-0.86,10.27-2.13,15.3601-3.4c0.84-1.78,1.3201-3.85,2.77-5.26
		c2.6899-1.58,4.97,1.22,7.1,2.49c4.76-1.78,9.64-3.27,14.3099-5.29c1.5-1.82,0.8601-5.1,3.29-6.14c2.73-1.39,5.02,2.76,7.73,1.27
		c4.29-1.97,8.45-4.22,12.6001-6.4901c0.3599-1.88,0.45-3.85,1.2-5.62c2.0601-2.43,5-0.25,7.4199,0.21
		c4.5701-2.51,8.8301-5.66,12.9301-8.86c0.2999-1.84,0.0499-3.73,0.53-5.52c1.66-2.86,5.09-1.12,7.59-0.72
		c3.9399-3.42,7.87-6.85,11.64-10.45c-0.13-1.94-0.6-3.9-0.26-5.82c1.4601-2.82,4.83-1.45,7.3099-1.6
		c3.73-3.65,7.05-7.73,10.3-11.82c-0.3201-2.13-1.6-4.44-0.49-6.49c1.49-2.08,4.37-1.04,6.51-1.6c3.3-4.08,5.9099-8.68,8.8201-13.05
		c-0.6201-1.9-1.8401-3.76-1.6301-5.81c0.8-2.9,4.3601-2.4301,6.6901-3.03c2.41-4.63,4.73-9.3,6.9-14.05
		c-0.8701-2.19-3.1801-4.38-1.92-6.85c1.33-1.7599,3.8099-1.81,5.7301-2.56c1.98-4.9,3.5999-9.93,5.0999-15
		c-1.28-1.98-3.75-3.92-2.74-6.54c1.26-1.8,3.71-2.12,5.4-3.42c1.27-4.86,2.1801-9.82,3.02-14.76c-0.85-2.16-3.84-3.36-3.5499-5.89
		c0.1499-2.79,3.7-3.01,5-5.01c0.58-4.96,0.95-9.97,0.98-14.96C828.73,338.4,827.03,337.44,825.86,335.99z M808.64,387.99
		c-10.85,36.06-32.9401,68.58-62.27,92.18c-28.61,23.22-64.1901,37.74-100.9,41.02c-41.1299,4.01-83.49-6.02-118.3999-28.17
		c-33.17-20.84-59.5901-52.24-74.3401-88.55c-17.2-41.79-18.55-89.81-3.85-132.53c12.6-37.11,37.17-69.99,69.1-92.7
		c27.0601-19.44,59.39-31.46,92.5801-34.34c40.0999-3.8,81.3799,5.73,115.6899,26.88c32.39,19.7,58.5601,49.41,74.03,84.03
		C818.87,296.95,821.79,344.82,808.64,387.99z"/>
	<path fill="#12110D" stroke="#12110D" stroke-width="0.3" d="M611.58,191.81c37.28-4.43,76.11,6.72,105.25,30.41
		c28.95,23.12,48.32,57.95,52.19,94.84c4.69,39.17-8.03,79.98-34.16,109.54c-24.47,28.28-60.52,46.17-97.87,48.32
		c-37.83,2.69-76.47-10.7-104.48-36.27c-28.9-25.81-46.42-63.89-46.89-102.66c-1.05-37.85,14.03-75.79,40.75-102.61
		C548.88,210.29,579.51,195.3,611.58,191.81z"/>
	<path fill="#FDFDFD" stroke="#FDFDFD" stroke-width="0.3" d="M437.08,268.35c2.11-1.26,2.31,4,0.1,2.67
		C437.15,270.35,437.1,269.02,437.08,268.35z"/>
	<path fill="#F9E8D7" stroke="#F9E8D7" stroke-width="0.3" d="M20.37,376.99c0.08-5.75-0.4-11.53,0.51-17.23
		c-0.05,54.41,0,108.82,0,163.23c-0.03,3.16,0.18,6.34,0.69,9.47c-0.19-0.36-0.56-1.06-0.75-1.42c-0.89-6.29-0.36-12.67-0.45-19
		C20.33,467.02,20.37,422.01,20.37,376.99z"/>
	<path fill="#FFFEFF" stroke="#FFFEFF" stroke-width="0.3" d="M441.59,417.14c1.06,0.36,2.11,0.74,3.19,1.1
		c0.93,0.99,1.86,1.97,2.81,2.95c-0.58,1.32-1.16,2.64-1.75,3.96c2.58,5.22,5.47,10.29,8.57,15.22c2,0.26,4.01,0.53,6.02,0.77
		c0.38,2.26-0.68,4.39-1.35,6.5c1.07,1.45,2.08,2.88,3.05,4.42c-5.37-4.54-11.86-8.29-19.1-8.22c-5.54-0.38-10.93,1.33-15.69,4.04
		C431.27,437.27,436.16,427.06,441.59,417.14z"/>
	<path fill="#FEFEFD" stroke="#FEFEFD" stroke-width="0.3" d="M436.02,446.14c13.67-3.74,28.89,6.12,31.37,20.01
		c3.19,13.5-6.61,28.18-20.22,30.58c-13.28,3.13-27.67-6.27-30.44-19.55C413.22,463.81,422.53,448.95,436.02,446.14 M437.4,453.57
		c-8.5,1.99-14.68,10.74-13.67,19.42c0.55,8.82,8.39,16.39,17.21,16.66c8.43,0.7,16.66-5.29,18.76-13.44
		c1.85-6.54-0.29-14.03-5.41-18.51C449.85,453.54,443.24,452.12,437.4,453.57z"/>
	<path fill="#6D6D6D" stroke="#6D6D6D" stroke-width="0.3" d="M462.32,452.36C462.86,452.87,462.86,452.87,462.32,452.36z"/>
	<path fill="#12110D" stroke="#12110D" stroke-width="0.3" d="M437.4,453.57c5.84-1.45,12.45-0.03,16.89,4.13
		c5.12,4.48,7.26,11.97,5.41,18.51c-2.1,8.15-10.33,14.14-18.76,13.44c-8.82-0.27-16.66-7.84-17.21-16.66
		C422.72,464.31,428.9,455.56,437.4,453.57z"/>
	<path fill="#FDFDFD" stroke="#FDFDFD" stroke-width="0.3" d="M465.18,456.19c1.48,1.74,2.79,3.63,4.4,5.27
		c2.11,0.43,4.39-0.11,6.54,0.44c-0.23,2.07-0.57,4.14-1.08,6.16c3.89,4.25,7.56,8.8,12.1,12.37c0.74,0.04,2.23,0.13,2.97,0.17
		c-8.56,3.08-17.26,5.8-26.15,7.74c4.01-5.9,6.4-13.09,5.4-20.27C469.06,463.78,467.03,459.96,465.18,456.19z"/>
	<path fill="#F9E8D7" stroke="#F9E8D7" stroke-width="0.3" d="M1034.97,517.93l0.03-1.1c-93,0.07-186.01,0.01-279.01,0.03
		c-13.48,0.19-27-0.38-40.45,0.29c-2.8101,1.54-5.71-1.11-8.71-0.37c-0.4601,1.52-0.8201,3.0699-1.4001,4.55
		c-1.97,1.32-4.33,1.91-6.49,2.82l-0.03,0.09c-3.3599,0.91-6.5199,2.59-9.98,3.1c-1.77-0.96-3.3999-2.17-5.0699-3.27
		c-1.4501,1.68-2.2999,3.74-3.1,5.79c-5.53,1.69-11.23,2.7-16.86,3.93c-1.61-1.31-3.02-2.89-4.87-3.83
		c-2.01,0.75-2.41,3.5099-3.96,4.94c-5.5901,1.36-11.4102,1.12-17.0901,1.81c-1.46-1.57-2.88-3.16-4.35-4.7
		c-1.7999,1.37-3.2001,3.15-4.58,4.92c-5.75-0.03-11.49-0.21-17.21-0.68c-1.25-1.77-2.52-3.52-3.8801-5.18
		c-1.6499,1.37-3.1399,2.94-4.8899,4.2c-5.6501-0.45-11.27-1.45-16.8101-2.64c-1.4199-1.76-2.2-3.95-3.45-5.82
		c-1.9501,1.11-3.53,3-5.6501,3.69c-5.5-1.15-10.7799-3.09-16.1399-4.72c-1.04-1.94-1.1101-4.73-3.1001-5.9
		c-1.9199,0.61-3.4399,2.11-5.3799,2.61c-4.39-1.17-8.2-4.03-12.6301-4.93l0.9401-0.43c-11.92-0.62-23.88-0.1-35.8099-0.27
		c-88.3401,0-176.6801,0-265.02,0c-51.46,0.11-102.93-0.2-154.39,0.15l-0.68-0.16l-0.58,0.1801c-20.52-0.4-41.07-0.05-61.6-0.19
		c0.01,0.49,0.02,1.47,0.02,1.95c0.18,5.01-0.65,10.28,1.4,15.03c2.46,6.5,8.33,11.55,15.09,13.11c3.87,0.76,7.83,0.46,11.74,0.51
		c318.3-0.01,636.6-0.02,954.9099,0c3.8801-0.12,7.8301,0.42,11.6602-0.54c6.7999-0.78,12.72-5.92,15.5499-12.04
		C1035.72,529.59,1034.85,523.58,1034.97,517.93z M1010.6602,546.0737c1.5477,0.0784,3.0918,0.2095,4.6292,0.4282
		C1013.752,546.2832,1012.2078,546.1521,1010.6602,546.0737z"/>
</g>
</svg>
